<?xml version="1.0" encoding="UTF-8"?>
<svg viewBox="0 0 624.73 619.82" xmlns="http://www.w3.org/2000/svg">
<defs>
<style>.cls-1{isolation:isolate;}.cls-2{mix-blend-mode:multiply;}.cls-3{fill:#f2e0bc;}.cls-4{font-size:24.75px;}.cls-10,.cls-4,.cls-7,.cls-8{font-family:KariDisplayPro-Regular, Kari Display Pro;}.cls-5{mix-blend-mode:screen;}.cls-6{fill:#afdcc9;}.cls-7{font-size:37.45px;}.cls-8{font-size:29.43px;}.cls-9{fill:#ebcec6;}.cls-10{font-size:28.91px;}.cls-11{fill:#555;}</style>
</defs>
<g class="cls-1">
<g data-name="Layer 2">
<g data-name="Layer 3">
<g class="cls-2">
<path class="cls-3" d="M427.56,132.13c-9.07,9.72-15.2,24-14.41,37.56s9.42,25.73,20.9,26.8c7.49.7,15.41-3,22.71-1.35,10.4,2.38,16.05,14.51,21,25.28s12,22.31,22.78,22.29c8.76,0,16.72-7.81,23-15.86a164.39,164.39,0,0,0,22.37-39c6.34-15.63,10.25-34.39,3.48-48.17-5.3-10.82-15.86-16-25.81-20.49-12-5.49-24.27-11-37.46-12.27-20.62-1.93-42.75,7.41-59,24.91"/>
</g>
<text class="cls-4" transform="matrix(.68 -.59 .66 .75 427.03 131.32)">d</text>
<text class="cls-4" transform="matrix(.78 -.46 .51 .86 439.59 120.42)">e</text>
<text class="cls-4" transform="matrix(.84 -.31 .35 .94 451.97 113.19)">s</text>
<text class="cls-4" transform="matrix(.89 -.16 .18 .98 465.17 108.56)">i</text>
<text class="cls-4" transform="translate(473.61 106.72) rotate(.1) scale(.9 1)">g</text>
<text class="cls-4" transform="matrix(.87 .23 -.26 .97 489.23 106.89)">n</text>
<g class="cls-5">
<path class="cls-6" d="M196.25,505c-1.91,11.85-1.67,23.86,4.59,34.06s19.29,18.39,36.51,19.7c12.07.92,25.28-1.51,37.22-.3,9.36,1,17.28,4.07,25.73,6.39s18.27,3.84,28,1.53,17.78-8.25,21.78-14.62,4.39-13.11,3.1-19.34c-2.63-12.7-12.18-23.92-26.67-31.33-7.7-3.94-16.76-6.84-23.52-11.45-21.83-14.89-14.23-43.08-34.42-59a32.73,32.73,0,0,0-15.43-6.71c-14.32-2.18-31.22,4.54-42.19,13-12.19,9.43-19.5,21.34-20,32.62-.59,12.86,6.95,20.45,5.48,33.38Z"/>
<text class="cls-7" transform="translate(194.16 484.06) rotate(258.31) scale(.7 1)"></text>
<text class="cls-8" transform="matrix(.04 -.69 1 .06 191.84 476.86)">d</text>
<text class="cls-8" transform="translate(192.66 462.99) rotate(-65.95) scale(.7 1)">e</text>
<text class="cls-8" transform="matrix(.44 -.54 .78 .63 198.06 451.23)">v</text>
<text class="cls-8" transform="matrix(.54 -.44 .63 .78 205.52 442.08)">e</text>
<text class="cls-8" transform="matrix(.6 -.35 .5 .87 216.18 433.74)">l</text>
<text class="cls-8" transform="matrix(.65 -.25 .36 .93 222.55 429.84)">o</text>
<text class="cls-8" transform="translate(235.51 424.79) rotate(-8.15) scale(.7 1)">p</text>
<text class="cls-8" transform="translate(247.44 421.96) rotate(16.36) scale(.7 1)">m</text>
<text class="cls-8" transform="matrix(.51 .47 -.68 .73 267.05 428.09)">e</text>
<text class="cls-8" transform="matrix(.32 .62 -.89 .46 276.45 436.46)">n</text>
<text class="cls-8" transform="translate(283.26 450.85) rotate(71.84) scale(.7 1)">t</text>
</g>
<g class="cls-2">
<path class="cls-9" d="M392.2,372.94a11.57,11.57,0,0,1-1.07.9c-5.67,4.39-12.89,5.85-17.26,11.73-4,5.36-4.57,12.68,1.08,20.24,8.17,10.94,24.24,12.61,34.31,22.23,8,7.67,10.23,18.41,17.1,26.94,8.24,10.22,22.16,15.49,33.27,14.81s19.78-6.3,26.71-13.07c6.76-6.6,12.37-14.83,12.58-25.31.28-14.46-9.69-31.43-6.79-44.9,3.11-14.43,20.56-22.6,15.46-39-1.65-5.31-5.55-10.4-9.85-14.89A76.4,76.4,0,0,0,473,315.13c-20.89-8.85-41.54-3.38-54,8.43a73.31,73.31,0,0,0-16.34,24.17C399.17,356,398.87,366.79,392.2,372.94Z"/>
<text class="cls-10" transform="matrix(.32 -.68 .85 .51 402.58 348.02)">i</text>
<text class="cls-10" transform="matrix(.4 -.63 .79 .62 406.63 339.7)">l</text>
<text class="cls-10" transform="matrix(.47 -.56 .71 .72 411.55 332.05)">l</text>
<text class="cls-10" transform="matrix(.57 -.43 .56 .87 416.76 325.04)">u</text>
<text class="cls-10" transform="matrix(.66 -.26 .35 .99 428.85 316.21)">s</text>
<text class="cls-10" transform="matrix(.7 -.11 .17 1.04 440.53 312)">t</text>
<text class="cls-10" transform="matrix(.71 .02 .01 1.05 448.93 310.69)">r</text>
<text class="cls-10" transform="matrix(.69 .19 -.2 1.01 458.8 310.69)">a</text>
<text class="cls-10" transform="matrix(.65 .34 -.38 .94 474.16 315.51)">t</text>
<text class="cls-10" transform="matrix(.61 .43 -.49 .88 482.07 319.72)">i</text>
<text class="cls-10" transform="matrix(.54 .53 -.61 .77 489.58 324.61)">n</text>
<text class="cls-10" transform="matrix(.37 .68 -.81 .52 501.19 335.5)">g</text>
</g>
<path class="cls-11" d="M139.29,221.27c-1,.37-.3.67,2.37-.08l1.77-1.11Z"/>
<path class="cls-11" d="M157.59,217.18c2.95-1.53,6.22-3.45,4-3.22a36.58,36.58,0,0,1-3.2,1.84c-.46.24-.92.49-1.46.81s-1.14.71-1.92,1.14c-2.64.93-4.7,1.29-4.33.91a22.37,22.37,0,0,1-2.57.88,16.84,16.84,0,0,0-2.95,1c.91-.1,1.89-.21,2.89-.42s2-.54,3.07-.87,2.13-.71,3.22-1.11l1.65-.64,1.61-.8C158.63,216.45,157.77,217,157.59,217.18Z"/>
<path class="cls-11" d="m316.09 13.78-1.7 0.45c0.47-0.1 1.05-0.23 1.7-0.45z"/>
<path class="cls-11" d="m479.06 29.32a6.87 6.87 0 0 0-1.77-0.69c1.1 0.48 2 0.86 1.77 0.69z"/>
<path class="cls-11" d="m504.83 42.6-1.53-0.77a8.72 8.72 0 0 0 1.53 0.77z"/>
<path class="cls-11" d="m316.09 13.78 4.39-1.1c0.24-0.3-2.27 0.5-4.39 1.1z"/>
<path class="cls-11" d="M189.69,197.88c-.74.57-1.34,1.08-1.88,1.56l1.82-1.39A.7.7,0,0,1,189.69,197.88Z"/>
<path class="cls-11" d="M271,64l-.17,1.36c0,.41.08.8.14,1.17Z"/>
<path class="cls-11" d="m256.35 119.72a3.51 3.51 0 0 0 0.19-2.39 10.54 10.54 0 0 1-0.79 2.76c0.09 0.07 0.25-0.04 0.6-0.37z"/>
<path class="cls-11" d="m201.23 191.83-1.23 1.07c0.33-0.27 0.87-0.74 1.23-1.07z"/>
<path class="cls-11" d="m286.53 28.51a1.16 1.16 0 0 0 0.53-0.15c-0.06-0.05-0.24 0.02-0.53 0.15z"/>
<path class="cls-11" d="m84.09 249.79c0 0.06 0 0.05 0.06 0.09 0.26-0.23 0.32-0.32-0.06-0.09z"/>
<path class="cls-11" d="M143.74,219.91l-.8.47a.6.6,0,0,0,0,.37Z"/>
<path class="cls-11" d="m552.46 65.41-0.19-0.12c-1.27-0.6-0.55-0.24 0.19 0.12z"/>
<path class="cls-11" d="m529.37 510.25c2.07-1.78 0.66-0.08-0.53 1.38a9.81 9.81 0 0 0-1.13 1.53c0 0.15 0.54-0.22 2.07-1.6-0.66 0.44 4.47-6.03-0.41-1.31z"/>
<path class="cls-11" d="m190.93 197.08 1.89-1.37c-0.82 0.61-1.45 1.03-1.89 1.37z"/>
<path class="cls-11" d="m529.78 511.56 0.63-0.57z"/>
<path class="cls-11" d="m605.34 167.94a7.34 7.34 0 0 0 0-1.27c-0.04 0.05-0.06 0.33 0 1.27z"/>
<path class="cls-11" d="M576.63,83.55c.44.59.91,1.16,1.33,1.76C577.48,84.58,577,84,576.63,83.55Z"/>
<path class="cls-11" d="M613,214.39a29.62,29.62,0,0,0,.29,3.29,4,4,0,0,0,0-.51A14,14,0,0,1,613,214.39Z"/>
<path class="cls-11" d="m615.56 263.31c0-0.26 0.07-0.6 0.11-0.9v-1.55z"/>
<path class="cls-11" d="m6.73 375.08a13.63 13.63 0 0 1 1-2.1c-0.54 0.65 1.06-6.44-1 2.1z"/>
<path class="cls-11" d="m189.9 198.12a3.69 3.69 0 0 1 1-1l-1.3 1c-0.03 0.08-0.01 0.16 0.3 0z"/>
<path class="cls-11" d="m617.64 215.93 0.35 3.91 0.29 3.92c-0.07-1.09-0.16-2.35-0.24-3.69s-0.27-2.74-0.4-4.14z"/>
<path class="cls-11" d="m223.41 607.13-1.8-0.09a13.62 13.62 0 0 0 1.8 0.09z"/>
<path class="cls-11" d="M619.77,247.05c-.14,1.41-.25,2.9-.28,4.44a7.65,7.65,0,0,0,.16.91Z"/>
<path class="cls-11" d="m7.77 373s0 0 0 0 0 0 0 0z"/>
<path class="cls-11" d="M22.58,323.27c-1.49,3.46-1.68,4.35-1.5,4.57s.65-.22.56.6c-3.05,8.42-2,3.67-3.47,6.38-1.73,5.35-2.52,9.61-3.78,13.58-.21.26-.5,1-.35.06-.67,2.9-1.87,7.11-3.11,11.44a105.3,105.3,0,0,0-2.77,12.24,3.37,3.37,0,0,1-.39.83c.63-1,1-1.06,1.24-.78-.79,3.25-1,6.13-1.77,7.25a13,13,0,0,0,.41-3.17c-.22,1.15-.4,2.31-.6,3.46-1.39,2.93.84-4.72.37-4.83-1.42,6.71-2.5,14.63-3.56,19.78-.41.48,0-2.57.44-4.86s.67-3.88-.3-.49c.59-2.65,1.26-5.28,1.92-7.91-1.19,2.92-.9,1.72-.62.45s.6-2.6-.59.07c-1.24,5.22-1.74,8.19-2.17,11.17-.21,1.49-.45,3-.68,4.77-.13.89-.27,1.85-.43,2.93s-.31,2.26-.49,3.6c.08,2.45.64-.73.74,1.71-.09,1.91-.21,3.52-.32,4.91s-.17,2.56-.29,3.57c-.23,2-.4,3.39-.63,4.65A23.62,23.62,0,0,0,0,423.18a25,25,0,0,0,.06,2.66c.1,1,.25,2.22.47,3.62s.85,2.43,1.25,4c.11.4.21.85.31,1.35s.26,1,.39,1.68c.28,1.25.46,2.82.88,4.8-.47-.83-1-1.67-1.36-2.53a44.05,44.05,0,0,0,1.43,5.42c.44,1.16.81,1.86,1.15,2.58.68,1.43,1.29,2.93,3.27,8.11-1.16-1.64-3.34-7.64-2.86-6.1,1,3.46,1.58,4.64,2.2,5.52a28,28,0,0,1,2.46,4l-.06,1.33a104.87,104.87,0,0,0,10,14.38c3.75,4.66,7.74,9.22,11.65,13.88-.58-.39-2.07-1.87-.42.46,10,11.63,21,25.2,30.78,36.36,1.43,1.26,2.84,2.53,4.31,3.74.9,1,1.5,1.95.43,1,3.85,4.33.47,0,2.57,1.8,2.31,2.35,2.77,3.37,1.2,2,1.84,1.78,4.15,3.84,6.64,6.13L80.55,543l4.1,3.63,4.07,3.67,4,3.49,7,6.21L98,558.8a53.7,53.7,0,0,0,7.22,5.17c1,.63,2,1.19,3.06,1.92a45.77,45.77,0,0,1,3.83,2.89l-1.27-.79a202.81,202.81,0,0,0,23.37,15l5.95,3,2.88,1.49,1.41.73,1.42.65c1.89.85,3.71,1.7,5.45,2.52s3.39,1.67,5,2.32c1.41,0,5.62,1.69,9.73,3.12s8.17,2.41,8.88,2l5.54,1.72c1.36.41,2.37.75,3.53,1.06a126.65,126.65,0,0,0,12.38,2.76c3.87.63,5.88.13,10.69.59l0,.63q3.3.07,6.59.09l3.4,1.08,4.52.27c-1.79-.2-3.79-.63-3.5-.78,7.06.41,17.11,1.85,17.26,2.18q8.34.38,16.68.67c-.39.22-3.18.12-5.39.12,8.93,0,1.57.77,9.76.72-1.09-.21.61-.33.8-.44a182.23,182.23,0,0,0,20.19,1.15l-1.33.39c6.2.24,12.76.3,19.51.17s13.69-.49,20.67-1c-5,.13-3.91-.67.16-1l1.68.52c2.61-.62-4.28.1,1.09-.83,2.6-.17,3.49-.09,3.36.13a6.7,6.7,0,0,1-2.77.78c2.11-.23,4.2-.57,6.3-.86.4.16-1.08.42-1.44.71,2.55-.62,11-.67,14.63-2l.39.13c3.46-.57,6.42-1.22,9.12-1.75s5.08-1.21,7.4-1.76c4.61-1.22,8.9-2.39,14.34-4.07,0-.31,1.12-.74,2.59-1.28s3.29-1.27,4.83-2a268.73,268.73,0,0,0,26.09-9.2c6.38-3,1.71-1.25,4.49-2.81.7.31,9.84-3.83,5.24-1.37,10.95-5,14-6.46,27.45-13.52-1.58.54-3.28,1.27-2.5.69,2.45-1.28,5.72-2.59,5.48-2.19l-.63.37c7.47-4.14,16.4-8.26,24.93-12.23s16.65-7.94,22.32-11.8l-.64.42c4-2.47,8-5.07,11.88-7.76,5.54-3.45-3.09,2.45,1.15.1,6.22-4.51,11.14-8.06,15.66-11.59a94.51,94.51,0,0,0,12.89-11.82,51.72,51.72,0,0,0,7.09-6.81c2.61-2.95,5.38-6.46,8-10.17,5.35-7.41,10.27-15.56,14-21l-.69.47c1.44-3.1,2.25-3.44,3.58-5.57-.42.17-2.12,3-1.23,1.11,6.92-12.6,13.87-25.7,20.16-39.25a412.94,412.94,0,0,0,16.7-41.48,28.46,28.46,0,0,0,1.91-8.63c.16-1.92.61-4.11,2.84-10.53-.11,1.3-.24,2.6-.4,3.89.7-2.63,1.26-5.32,1.93-8s1.39-5.33,1.95-8c1.22-5.39,2.54-10.78,3.59-16.22a297.07,297.07,0,0,0,5-32.32,13.09,13.09,0,0,1-.1,3.4,70.24,70.24,0,0,0,1.32-9.93c.15-1.8.26-3.47.3-4.69a6.61,6.61,0,0,0-.12-2c.31-3.3.41-.73.77-2.75a72.37,72.37,0,0,0,.49-7.65,32.23,32.23,0,0,1,.32-6.07c.09-.4.09,1.28.08,2.11,0-1.48.15-4.9.26-7.61s0-4.7-.26-3.29c.24-4,.28-7.83.19-11.45,0-1.81,0-3.57,0-5.27s0-3.36,0-4.95a30.51,30.51,0,0,1-.32-3.91c-.07-1.49-.11-3.11-.16-4.65-.08-3.06-.2-5.77-.7-6.4.47.26.43-3.25.18-7.45s-.85-9.07-1.36-11.56c.45,1.66-.16-4.39.42-2.46-.29-2.87-.63-5.61-1-7.5s-.61-2.93-.78-2.41c-.22-10.68-3.77-21-3.46-27.08-3.33-16.79-7-32.17-10.79-47.06.5.17,1.52,4.29,2.46,8.27s1.83,7.83,2.22,7.41c-1.76-7.09-3.35-12.61-4.91-18.14s-3.31-11.05-5.73-17.94c-.62-1.79-.34-1.32.18-.27s1.21,2.73,1.5,3.31a140.15,140.15,0,0,0-8.88-19.56,73.41,73.41,0,0,0-12.15-16.31,16,16,0,0,1,2.09,1.92l-2.69-3c-.83-.82-1.45-1.32-1.49-1.07.64.57,1.28,1.13,1.87,1.74,1.18,1.75-.74,0-3.21-2-1.19-1-2.62-2-3.68-2.82a15.68,15.68,0,0,0-2.07-1.31c2.05.93-.36-1.22-2.68-3s-4.41-3.33-1.08-2c-.73-.45-1.57-.93-2.2-1.25s-1.08-.43-1-.21c-2.1-1.41-2.71-2-.36-.87a46.07,46.07,0,0,0-6.7-3.44c-1.28-.55-2.44-1.07-6.17-2.93.12-.17,1.66.51,2.53.7-3.95-1.57-7.93-3-14.28-6,.43.06-.25-.41,1.66.43-5.52-2.4-10.34-4.13-15.22-6.06a169.76,169.76,0,0,1-15.69-7c3.87.88-3.92-2.18-4.22-3.16l-6.46-2.89,2.4,1.57C492,32.46,486.87,30.54,482.17,28l4.29,1.73-10.55-4.91,5.82,3.1c-5.83-2.37.2,1.13-7.16-2.61,1.55.65-5.61-2.66-8.39-4.36h0a101.64,101.64,0,0,1-10-4.06c-1-.67,1.2-.39.55-.83-1.54-.28-4.89-1.69-8.42-3a62.64,62.64,0,0,0-9.07-2.89c1.26.28,1.46-.06,1.08-.28-.85-.14-1.71-.26-2.57-.36-2.69-1.05-3.07-1.26-2.52-1.41A16.75,16.75,0,0,0,432,7.22c-.32,0-.07.18.13.34.41.33.64.56-4.24-1.1.79.19.44,0,2.08.41C420,3.7,410.4,2.38,401,1.19c-2.72-1.07,8.3.76,5.17-.23a150,150,0,0,0-21-.92c-7.07.1-14,.76-20.64,1.34.82-.06,1.64-.15,2.47-.18-.87.6-3.32.77-6.4.91-1.54.08-3.23.24-4.95.42-.85.1-1.72.2-2.57.34s-1.7.33-2.51.54c1.6-.36,2-1,1.6-.76-9,1.35-18.23,3.76-31.33,7.87l1.56-.73a170.11,170.11,0,0,0-19,6c-1.51.88-4.57,2.19-2.56,1.74a50.85,50.85,0,0,0-11.89,5.74,40.91,40.91,0,0,0-5.13,3.92l-2.34,2.22-2.07,2.43a43.18,43.18,0,0,0-6,10.82,104.33,104.33,0,0,0-3.6,11.53c.31-1.87.72-4.51.37-3-.91,4.47-1.41,9-1.87,13.41.58-1,.48-1.71,1.22-4.47a82.23,82.23,0,0,1-.61,8.81c.41-6-.73,0-1.32,2.51.2-.42.24.49.41.29-.85,3.41-.71,3.71-.52,4.36s.37,1.63-.86,6.26l-.13-.55a93.25,93.25,0,0,1-2.11,10.52c-.92,1.4.72-3.75.34-4.09-1.26,5.23-1.82,10.58-3.9,15.06.3-1.11.69-2.46,1.09-3.8s.74-2.7,1-3.82c-1.07,2.46-1.61,3.84-2.07,5.07s-.79,2.32-1.5,4.16l.14-.36c-1.07,2.85-2.25,5.65-3.46,8.44l1-2.1a41.2,41.2,0,0,1-3.38,10c-1.56,3.4-3.37,7-5.11,11.24,3.33-8.26.24-1.52,0-2.41-1.21,2-3.08,5-2.74,4-1.65,4-3.92,6-6.49,11.5-.31.12-2.56,3.81-2.43,2.73-2.95,4.72,1-.91,1-.38a86.73,86.73,0,0,1-8.65,12.09l-5.51,6.61q-1.46,1.68-2.88,3.45c-1,1.18-1.89,2.41-2.88,3.6-1.76,2-3.14,3.63-4.31,5.05l-3.27,3.73c-1,1.15-2,2.32-3.21,3.59s-2.67,2.64-4.48,4.35c-2.72,2,1.59-2.35,1.59-2.35-2.12,1.68-3.9,3.23-5.75,4.65s-3.52,3-5.51,4.58c.74-.74-.21-.23-1.6.5a18.61,18.61,0,0,0-2.7,2.35,14.62,14.62,0,0,1-3.7,2.64c.66-.68,1.47-1.59,2.92-2.94C186,201,184,202.27,182,203.7l-3,2.12-3.14,1.94c-.66.18-.06-.3.87-.95s2.21-1.46,2.87-2.05l-.9.6-1,.59-2.07,1.23-4.19,2.52a43.23,43.23,0,0,0-5.74,3.4l3.32-1.38c-1.83.91-1.15,0,.16-.7,2.08-1.18,3.58-2,4.66-2.48a5.25,5.25,0,0,1,1.86-.55l-3,1.84a15.2,15.2,0,0,0,3.61-1.5,38,38,0,0,0,4.71-2.89l5-3.58c1.66-1.23,3.22-2.49,4.69-3.51l-1.95,2.42c1.86-1.64,3.75-3.2,5.54-4.88,1.35-.8,2.48-1.11-.22,1.2,4.28-2.89,3.38-3.07,7.12-5.49.41-.27.28-.08-.05.23l3.62-3.52c-.62.79,1-.12-1.38,1.85,1.77-1.41,3.32-2.75,4.69-4s2.44-2.51,3.45-3.58,1.89-2,2.71-2.82a15.22,15.22,0,0,1,2.18-2l-.48.58c4.2-4.67,4.3-5,4.08-5.07s-.7.12,2.08-3.67l2.64-1.9,1.32-1,1.28-1,.29-1.35c.82-1,2.44-3,2.34-2.46,2.66-4-.72.48.7-2a52.7,52.7,0,0,0,3.32-4.18c1.14-1.55,2.33-3.15,3.32-4.71,2-3.08,3.8-5.6,4.54-6,.81-2.14-3.49,4.83-.21-1,1.86-1.08,3.92-6.6,7-11.39-.34,1.8-3.24,6.38-.05,1.62.89-3.43,5.32-9.76,7.09-14.28-.28-.25.72-2.66,2.07-6s3-7.61,4.13-11.48a61.25,61.25,0,0,0,2.76-7.88c1.42-4.59,2.84-10.23,3.7-13.9l.08.25c-.25-.8.09-3.1.4-5.91s.72-6.12,1-8.91c.41.27.47,1.29.3,4.34l.62-5.25a36,36,0,0,1,.37-6.29l.36,1.38c.49-3.44.83-6.93,1.66-10.55a36.53,36.53,0,0,1,4.3-11.18c-.05-.17-.37.08-.76.43s-.78.83-1.08,1.05-.46.21-.31-.43a16.94,16.94,0,0,1,1.82-4c.43-.15,1-.2-.17,2,.19-.36.5-1,.89-1.75A24.24,24.24,0,0,1,279.39,34a29.9,29.9,0,0,0-1.73,3.38l.67-1.06c.21-.27.36-.49.48-.67a3.64,3.64,0,0,0,.4-.81,6.3,6.3,0,0,1,.3-.7,5.69,5.69,0,0,1,1-1.32c.26.3,1.81-1.6,1.73-1a17.61,17.61,0,0,0-2.57,3.08l.84-1.1c.31-.35.64-.68,1-1a23,23,0,0,1,1.94-1.9,22.48,22.48,0,0,1,3.14-2.28c-.37,0-.36-.44,1.77-2.06a24.89,24.89,0,0,1,2.8-1.83,1.82,1.82,0,0,1,.88-.33c.28,0,.26.22,2-.71,1.3-1.1,5.36-2.79,5.23-3.35a9.11,9.11,0,0,1,3.09-.9,90.48,90.48,0,0,1,8.56-3.46c3.07-1.1,5.24-1.87,3.2-1.56l-.9.24.56-.2h0c11.18-4.12,23.83-6.56,35.37-8.83l0,.19c1.72-.34,3.53-.75,5.39-1l5.53-.89c3.63-.47,7-1,9.5-1.34,2.07-.18,4.92,0,4,.29l6-.47c1.79,0,3.88-.08,7.75.12-5.39.32,1.86.27-5.52.26l4.38.11,3.42.19c1.1.06,2.21.08,3.52.08s2.8.08,4.67.08c-1.29.16,0,.4,2,.65s4.75.61,6.4.73l-4.79-.92c1.85.19,3.59.35,5.26.59l4.9.83-1.86.38,2.56.53c.85.16,1.68.38,2.5.55,1.65.37,3.27.66,4.84,1,3.14.74,6.18,1.28,9.08,2.05a70.23,70.23,0,0,1,16,5.6c1.84.48.08-.34-1.77-1.09s-3.72-1.54-2-1.23c6.18,2.27,12.13,5.8,14,6.59C463,23.23,463,21.76,471.51,26c-1-.72-1.76-1.8,4.73,1,5.92,2.91,6.87,4.41,3.05,2.76-1.44-.66-2.1-1.06-2-1.1-2-.84-4.53-1.95-2.28-.59l.87.15c2.86,1.61,11,5.56,8.94,5,4.59,2,2.09.58-1.18-1.14,7.47,4,11.89,5.82,19.66,9.81-1.2-.71-2.22-1.53-1-.92,5.72,2.89,7.05,3.38,7.93,3.61s1.3.21,5.28,2c4.35,2.34-2,.08,6.14,3.35,4.8,2.36.79,1-1.24.36C527.93,53,534,56.33,538,58.27l-3.88-1.51c2.33.89,4.18,1.73,6.06,2.6l-2-1.42c2.19,1.07,4,2,3.92,2.12,2.4.8-1.39-1.56,3.28.24.71.4,1.62.87,2.59,1.38s2,1,3,1.54c2,1,3.6,2,3.92,2.59a30,30,0,0,0-3.7-2.08c-.47-.2-.34,0-.18.17.31.41.81.9-3-1a47.38,47.38,0,0,1,5.34,2.92c.28.24-.36-.06-.95-.36,2,1.33,3.28,2.1,4.16,2.62a11.69,11.69,0,0,0,2,.92c1.06.46,2.31.76,6.28,3.79-1.21-.49,1.4,1.94,2.64,3C566,74.38,565.7,74,566.2,74.16a14.24,14.24,0,0,1,3.2,2c2.25,2.28,3.49,3.48,4.45,4.44l1.37,1.3c.44.45.88,1,1.41,1.6L575.45,82l-1.24-1.45a12.52,12.52,0,0,1,2.41,2.29c.5.57,1.08,1.22,1.69,2l1.93,2.47c0,.47-2.61-3.16-1.74-1.8a29.89,29.89,0,0,1,4.73,6.91c1.5,2.68,2.86,5.7,4.63,8.71,1.15,3-.47.58.58,3.2a43.74,43.74,0,0,1,2,4.28c.46,1.2.79,2.22,1.12,3.25.61,2.07,1.25,4.18,2.65,8-.1-1.2-.26-1.88-.07-1.6a45.75,45.75,0,0,1,1.73,4.24c-1.36-4.31-2.91-8.55-4.66-12.69.65,1.3,1.26,2.61,1.84,3.94s1.17,2.66,1.73,4c-1.22-3.92-3.16-8-4-10.32,1.91,3.69,1.62,3.36,1.28,1.38,1.4,5.46,4.21,10.34,5.45,16.77l-1.19.12c1.89,9.54,4.73,16.76,7.07,29.27l-.65-4c.82,1.57,1.7,7.68,2.66,11.69-.47-.3-.09,2.25,0,4,.24-.26,1.69,9.16,2.62,10.17l.44,5.69c1.41,10.17,2.94,11.42,4.09,21.25-.81-2.9-.48,1.59-1.68-4.93.47,3.26.73,6.22,1,6.24a48.27,48.27,0,0,0,.8,5.62,44.26,44.26,0,0,1,.7,6.46,19.5,19.5,0,0,1,1.07,5.48c0,.41-.19,0-.19,0,.19,0,.74,5.76.91,2.49,0,1.28,0,2.69,0,4.18s.06,3.07.13,4.71c.16,3.28.34,6.78.51,10.25.34,6.93.48,13.71-.08,18.13.1,3.6,0,7.56,0,11.45s-.28,7.68-.42,10.94c-.09-.42-.19,0-.09-1.26a33.75,33.75,0,0,0-.1,7.44,33.79,33.79,0,0,1-.34,8.38c-.57,2.58-.49,1.22-.41-.39s.26-3.46,0-1.84a5,5,0,0,0-.75,2.58c-.18,1.32-.35,3-.5,4.92-.31,3.76-.58,8.23-1.5,11.58l.16-1.66a77.08,77.08,0,0,0-1.26,9.39c-.41,3.62-.92,7.64-1.69,11.88,0,0,0-.43-.19-.09-.18,3-.87,7.18-1.6,11.69s-1.87,9.25-2.7,13.32c.09-2.63.6-3.73-.27-2.32-.38,1.82-.12,1.6,0,1.84s.26.93-.64,4.54c-.89,2.27-2.5,7.39-3.21,7.92L602,366a29.17,29.17,0,0,0-1.88,6.05c-.5,2.22-1.06,4.45-1.63,6.2l-.16-.54c-1.48,5.15-2,7.82-2.74,10.55-.34,1.37-.7,2.76-1.2,4.5s-1.09,3.83-2.12,6.52l.63-1c-1.42,6.19-2.21,4.82-3.82,10.93l-1.44,1.49-3.16,9.26c-1.39,3.81-3,8-4.42,11.44.57-2.06,1.65-5.12,2.81-8.31s2.27-6.54,3.12-9.1c-.78,1.91-2,5.19-3.22,8.2a70.68,70.68,0,0,0-2.56,6.88,48.86,48.86,0,0,1,2-5c-.72,2.44-1.66,5.22-2.85,8.33s-2.77,6.48-4.51,10.21c-.34-1-2.81,3.77-5.69,9.35-1.39,2.81-3.07,5.73-4.53,8.31a44.88,44.88,0,0,1-3.8,5.87,177.83,177.83,0,0,1-11.23,18.79c-4.2,6.17-8.87,12.35-14.23,18.77,2.35-1.9,1.58-1,.41.47s-2.8,3.25-2,3.27a35.37,35.37,0,0,1-4,4.21c-1.45,1.35-3,2.63-4.46,3.92s-3.06,2.51-4.65,3.69c-1.18.78-.52.12.38-.72s2-1.93,1.76-1.91a38.51,38.51,0,0,1-3.26,2.71,6.2,6.2,0,0,1-1.23.77,12.21,12.21,0,0,0-3,1.83c.58-.19.11.4-1,1.39a54,54,0,0,1-4.92,3.7c1-.57,1.94-1.21,2.92-1.81s1.94-1.22,2.88-1.87a45.37,45.37,0,0,1-9.08,6.46,88.28,88.28,0,0,0-9.53,5.95c1-.77,2-1.54,3-2.35-2.53,1.77-7.4,4.75-12.34,7.62s-9.88,5.73-12.37,7.58c-1,.39-2.48.77-.09-.58-13.3,6.73-29.15,16.08-39.83,20.62l.89-.76c-2.46,1.3-4.11,2.64-7.39,3.86.11-.19.89-.75-.28-.21a100.46,100.46,0,0,1-9.88,5l2.72-1.63c-6.67,2.89-11.68,5.31-16.43,7.63-2.37,1.19-4.69,2.28-7.11,3.41s-5,2.23-7.79,3.37c-.27-.78-11.08,2.86-16.54,4.39l.15-.18c-8,2.47-14.86,4.58-21.63,6.32a194.88,194.88,0,0,1-21.14,4.52c-4.86.19-13,1-21.95,1.34s-18.63.43-26.43,0c2.39.21-.4.68-3.18.69-3.66-.26-10.16.25-9.55-.54l1.31.08c-2.73-.91-10.27-1.07-16.15-1.48l-1,1c-7.64-1.27-17.75-1.85-26.95-2.45s-17.52-1.33-21.58-2.56c-3.71-.19-8.25-.88-11.91-1.23l.29-.52c-5-1-8.77-1.74-12.78-2.69s-8.31-2-14.32-3.85c.85.15,1.72.25,2.57.37-.84-.26-1.62-.46-2.34-.66s-1.37-.37-2-.52c-1.25-.28-2.36-.45-3.45-.62s-2.18-.33-3.38-.59c-.6-.13-1.23-.27-1.9-.47s-1.36-.5-2.12-.82l-1.49-1.56c-11.47-4.81-22.14-11.5-32.69-17.81.24,0,.68,0,2.38,1.08-1.2-.83-3-2-4.92-3.38s-4-3-5.84-4.33-3.55-2.62-4.69-3.38-1.76-1-1.53-.47c.19-.36-2.35-2.33-5.53-4.81-1.57-1.27-3.32-2.66-5-4s-3.33-2.59-4.61-3.7l1.15.3c-2.33-1.66-3.56-2.5-5-3.57a68.24,68.24,0,0,1-5.88-5.11c-1.29-1.38-.86-1.48.82.38a33.1,33.1,0,0,0-4.19-4c-.54-.44-1.11-.92-1.88-1.63s-1.67-1.7-3-3.13l2.23,1.81a46.1,46.1,0,0,0-7-6.49c-2.92-2.85-8.25-9.13-8.48-10.21a32.64,32.64,0,0,1-5.89-5.8c-.2-.51.81.45,1.32.94-6.85-8.41-11-11.81-15.39-17.9a2.27,2.27,0,0,0-.56-1.18l7,8.41c1.77,2.08,2.78,3.29,2.55,3,.39-.33-4.07-5.67.08-1.93-3.93-4-10.7-10.79-14.82-16.2a5.92,5.92,0,0,1-.43-.81l.49.51c-1-1.24-1.89-2.29-2.79-3.26-1.31-1.73-2.13-2.84-3.42-4.46A22.35,22.35,0,0,0,24,472.34c-1.4-1.83-3-3.92-4-5.32-.29.57-2.78-3.18-.76.54-.28-.47.42.5,1.8,2.33.32.4.69.89.92,1.14l-.18-.16c1.38,1.8,3.2,4.12,5.33,6.74a39.33,39.33,0,0,1-5.95-7.28c-1.35-1.2-2.78-2.58-3.55-3.39-1-2.17-2.66-5.22-3.9-8a27.38,27.38,0,0,1-2.17-5.79c-.6-1.14-1.11-2.38-1.64-3.65l-.81-1.93-.69-2-.69-2c-.23-.68-.38-1.39-.58-2.08-.37-1.39-.78-2.77-1-4.15-.64-2.74-1-5.41-1.47-7.79S4,425,3.7,423.39a12.77,12.77,0,0,1,0-3c.12-.63.28-1,.37-1.57a42.23,42.23,0,0,0,.3,4.68c-.11-1.48-.22-3.32-.19-5.28s.06-4,.13-5.94c.17-3.85.4-7.15.13-7.9.63-3.74.67-2.65.69-1.94,0,.36,0,.63.1.16s.24-1.66.6-4.23v1.42c1-5,1.94-9.52,2.75-13.88s1.61-8.52,2.41-12.75a140.74,140.74,0,0,1,7.9-27.75,14.9,14.9,0,0,1-1.06,2.47c4.31-12.21,9-24.71,15.07-36.54s13.32-23,22.09-32.23c5.09-5.11,5.21-6.07,8.24-9.31l1.55-.63c.85-.92,1.65-1.91,2.56-2.79l2.71-2.65c1-.89,2-1.73,3-2.53s2-1.47,3.07-2.14c2.06-1.34,4.16-2.54,6.34-3.76,4.38-2.43,9.12-4.91,14.84-8.65l-1.73.51c4.3-2.33,13.49-7.7,13-6.9a10,10,0,0,1,3-1.88l.28.2,10.31-6.27c8.3-4.29-.68,1.8,11.31-4.7,4.38-2.54,12.21-7.74,10.44-7-1.8,1-4.68,2.34-5,2.14l4-2.37c.29-1.22,3-3.77-7.33,1.13l-6.68,4.31-2.46.83,5.84-3.23a37,37,0,0,0-7.68,4.45,12.29,12.29,0,0,0-3.15,1.16l-6.4,4.52c-1,.14,2.71-2.31-2,0-3,2.11,3.46-1-1.7,2.17-3.53,1.45-2.73.62-6.46,3.08-.66.09.09-.5,1.59-1.44-3.33,2.16-9.14,5.15-10.7,6.58a67.31,67.31,0,0,0-7.21,3.83c-2.45,1.41-4.42,2.56-4.48,2.08-1,.82-5.64,4.31-8.62,6.47,2.48-2.33-.4-.44-3.71,2s-6.89,5.5-6.57,4.49c-.85.94-2,2.28-3.48,3.76-.73.74-1.52,1.52-2.36,2.34-.41.41-.85.81-1.28,1.25l-1.25,1.36-2.6,2.81c-.86.95-1.79,1.86-2.56,2.88-1.6,2-3.14,3.93-4.45,5.71a11.37,11.37,0,0,1,1.3-1.84l-6.28,7.34a3.67,3.67,0,0,1-.57,1.62c-.37.81-.92,1.84-1.53,2.95-1.23,2.23-2.74,4.79-3.54,6.73-3.74,4.84,1.08-3.66-.5-2.4.69.08-4.85,9.46-3.29,7.94-2.59,3.89-2.07,3.43-3.77,5.26.44,1.14-1.77,4-2.89,7.7-.85,1.46-1.32,2.28-1.65,2.79a10.74,10.74,0,0,1-.66.89c-.33.42-.6,1-1.92,4.41C20.3,329.46,22.58,323.27,22.58,323.27Zm8.78,164.54h0c-1-1.15-1.78-2.13-2.31-2.75Zm9.37,11.25-4.06-4.88c-.18-.52.33-.22,1.26.91C37.32,494.56,39.45,497.28,40.73,499.06ZM24.16,472.72a11.37,11.37,0,0,1,2,2.74l-2.52-3.11-.22-.17A2.87,2.87,0,0,1,24.16,472.72Z"/>
<path class="cls-11" d="M21.09,469.89c-.21-.26-.34-.39-.59-.74.23.41.47.79.71,1.18l.62.54Z"/>
<path class="cls-11" d="M314.09,14.31l.3-.08c-.25,0-.48.1-.64.12A3.26,3.26,0,0,1,314.09,14.31Z"/>
<polygon class="cls-11" points="207.11 605.74 207.1 605.6 205.81 605.57"/>
<path class="cls-11" d="m267.48 71.39a5.23 5.23 0 0 0-0.27 1 6.4 6.4 0 0 0 0.27-1z"/>
<path class="cls-11" d="m259.23 104.85c-0.58 1.53-1.23 3-1.85 4.52 0.84-1.94 1.43-3.37 1.85-4.52z"/>
<path class="cls-11" d="m248.47 129.1a1.38 1.38 0 0 0 0 0.57z"/>
<path class="cls-11" d="m578.32 79.7 0.69 0.8c1.68 1.84 0.56 0.57-0.69-0.8z"/>
<path class="cls-11" d="M466.2,21c1.27.47,2.53.91,3.82,1.45C468,21.41,466.39,20.7,466.2,21Z"/>
<path class="cls-11" d="M617.56,215.07h0c0,.3.06.57.09.87Z"/>
<path class="cls-11" d="m475.36 24.9a58.82 58.82 0 0 0-5.36-2.5c1.68 0.82 3.64 1.78 5.36 2.5z"/>
<path class="cls-11" d="M169.58,210.1l-1.16.53s0,.09-.09.15Z"/>
<path class="cls-11" d="m168.33 210.78-1.25 0.67a8 8 0 0 0 1.25-0.67z"/>
<path class="cls-11" d="m164.46 212.87 2.62-1.42a16.63 16.63 0 0 0-2.62 1.42z"/>
<path class="cls-11" d="m198.89 191.06 0.18-0.41c-0.14 0.17-0.21 0.35-0.18 0.41z"/>
<path class="cls-11" d="M206.87,184c-1.92,1.67-5,3.93-7.65,6.33l-.15.33a47.5,47.5,0,0,1,3.72-3.1A30.39,30.39,0,0,0,206.87,184Z"/>
<path class="cls-11" d="M237.85,151.62c-.84,1.26-1.76,2.45-2.67,3.66l-2.73,3.61c1.11-1.15,2.57-2.66.19.71,3.62-4.44,3.17-4,2.7-3.71-.23.16-.47.29-.21-.21.13-.24.38-.65.82-1.3S237,152.86,237.85,151.62Z"/>
<path class="cls-11" d="m252.36 127.58c-2.1 4.4 0.32 0.1 0.3 0.38 1.19-2.87 1.47-3.56-0.3-0.38z"/>
<path class="cls-11" d="m375.63 2.84-0.46 0.53c3.69-0.24 0.03-0.2 0.46-0.53z"/>
<path class="cls-11" d="m414.25 2.68c-1.17-0.38-2.37-0.62-3.56-0.93l-1.79 0.18c1.78 0.26 3.58 0.43 5.35 0.75z"/>
<path class="cls-11" d="m435.31 12-1.56-0.43c2 0.59 3.95 1.13 5.9 1.8-1.44-0.47-2.89-0.9-4.34-1.37z"/>
<path class="cls-11" d="m615 254.61 0.61-1.14c-0.16-2.47-0.88-3.02-0.61 1.14z"/>
<path class="cls-11" d="m592.35 397.88a34.64 34.64 0 0 0-3 7.66c1.16-3.06 2.51-6.06 3-7.66z"/>
<polygon class="cls-11" points="246.27 604.09 249.22 604.08 243.68 603.87"/>
<path class="cls-11" d="M144.25,229.8c-1,.37-.3.68,2.38-.08l1.76-1.11Z"/>
<path class="cls-11" d="M162.55,225.72c2.95-1.53,6.22-3.46,4-3.23a32.07,32.07,0,0,1-3.19,1.84c-.46.25-.93.5-1.47.81s-1.14.71-1.92,1.14c-2.63.93-4.7,1.3-4.32.92a23.9,23.9,0,0,1-2.58.87,17.57,17.57,0,0,0-2.94,1c.91-.1,1.88-.21,2.88-.42s2-.54,3.07-.87,2.13-.71,3.23-1.11L161,226l1.62-.8C163.6,225,162.73,225.51,162.55,225.72Z"/>
<path class="cls-11" d="m321.05 22.31-1.7 0.45c0.47-0.1 1.05-0.26 1.7-0.45z"/>
<path class="cls-11" d="m484 37.85a7.21 7.21 0 0 0-1.77-0.69c1.12 0.48 2.03 0.84 1.77 0.69z"/>
<path class="cls-11" d="m509.79 51.14-1.53-0.78a9.64 9.64 0 0 0 1.53 0.78z"/>
<path class="cls-11" d="m321.05 22.31 4.39-1.1c0.24-0.3-2.27 0.5-4.39 1.1z"/>
<path class="cls-11" d="M194.65,206.41c-.74.57-1.34,1.08-1.87,1.56l1.82-1.39A.77.77,0,0,1,194.65,206.41Z"/>
<path class="cls-11" d="M275.92,72.53l-.16,1.37a10.28,10.28,0,0,0,.13,1.16Z"/>
<path class="cls-11" d="m261.32 128.25a3.46 3.46 0 0 0 0.18-2.38 10.37 10.37 0 0 1-0.79 2.76c0.09 0.06 0.29-0.04 0.61-0.38z"/>
<path class="cls-11" d="m206.2 200.37-1.2 1.07z"/>
<path class="cls-11" d="m291.5 37.05a1.16 1.16 0 0 0 0.52-0.16s-0.24 0.02-0.52 0.16z"/>
<path class="cls-11" d="m89.05 258.33c0 0.05 0 0 0.06 0.08 0.26-0.22 0.33-0.31-0.06-0.08z"/>
<path class="cls-11" d="M148.7,228.44l-.79.47a.55.55,0,0,0,0,.37Z"/>
<path class="cls-11" d="m557.43 73.94-0.2-0.12c-1.23-0.59-0.54-0.24 0.2 0.12z"/>
<path class="cls-11" d="m534.33 518.78c2.07-1.78 0.66-0.08-0.53 1.38a9.91 9.91 0 0 0-1.13 1.54c0 0.14 0.54-0.22 2.07-1.61-0.65 0.41 4.47-6.02-0.41-1.31z"/>
<path class="cls-11" d="m195.89 205.61 1.89-1.36c-0.87 0.6-1.45 1.02-1.89 1.36z"/>
<path class="cls-11" d="m534.74 520.09 0.63-0.57z"/>
<path class="cls-11" d="m610.3 176.47a7.13 7.13 0 0 0 0-1.27c-0.03 0.05-0.05 0.34 0 1.27z"/>
<path class="cls-11" d="m581.59 92.09c0.45 0.59 0.92 1.15 1.34 1.75-0.49-0.72-0.93-1.26-1.34-1.75z"/>
<path class="cls-11" d="m618 222.93a27.41 27.41 0 0 0 0.29 3.28v-0.51a15 15 0 0 1-0.29-2.77z"/>
<path class="cls-11" d="m620.52 271.85c0-0.26 0.07-0.61 0.11-0.91v-1.55z"/>
<path class="cls-11" d="m11.69 383.61a12.44 12.44 0 0 1 1-2.09c-0.53 0.64 1.06-6.45-1 2.09z"/>
<path class="cls-11" d="m194.86 206.65a3.69 3.69 0 0 1 1-1l-1.29 1c-0.04 0.08-0.02 0.16 0.29 0z"/>
<path class="cls-11" d="m622.6 224.46 0.36 3.92 0.28 3.92c-0.07-1.1-0.15-2.36-0.24-3.7s-0.26-2.74-0.4-4.14z"/>
<path class="cls-11" d="m228.37 615.66-1.79-0.09a13.4 13.4 0 0 0 1.79 0.09z"/>
<path class="cls-11" d="M624.73,255.58c-.14,1.41-.24,2.9-.28,4.44a7.48,7.48,0,0,0,.17.91Z"/>
<path class="cls-11" d="m12.74 381.5z"/>
<path class="cls-11" d="M27.55,331.8c-1.5,3.47-1.69,4.35-1.51,4.57s.65-.22.56.6c-3.05,8.43-2,3.67-3.47,6.38-1.73,5.35-2.52,9.61-3.78,13.58-.21.26-.5,1-.35.07-.67,2.89-1.87,7.1-3.11,11.43a104.76,104.76,0,0,0-2.76,12.25,4.17,4.17,0,0,1-.39.82c.62-1,1-1.06,1.23-.78-.79,3.26-1,6.14-1.77,7.26a12.64,12.64,0,0,0,.41-3.18c-.22,1.15-.4,2.31-.6,3.47-1.39,2.92.85-4.73.38-4.84-1.43,6.71-2.51,14.64-3.56,19.78-.42.49,0-2.56.43-4.86s.68-3.87-.3-.49c.59-2.65,1.26-5.28,1.93-7.91-1.19,2.92-.91,1.72-.63.45s.6-2.59-.59.07c-1.23,5.22-1.73,8.2-2.16,11.18-.22,1.49-.46,3-.69,4.76-.13.89-.27,1.86-.43,2.93s-.31,2.27-.49,3.6c.08,2.45.65-.73.74,1.72-.09,1.91-.21,3.52-.32,4.91s-.17,2.56-.28,3.56c-.23,2-.4,3.39-.64,4.65A22.87,22.87,0,0,0,5,431.71a22.35,22.35,0,0,0,0,2.66c.1,1,.25,2.22.47,3.63s.85,2.42,1.26,4c.1.41.21.85.31,1.35s.26,1.05.38,1.68c.28,1.26.46,2.83.88,4.8-.46-.83-1-1.66-1.36-2.52a44.28,44.28,0,0,0,1.43,5.41c.44,1.17.81,1.86,1.15,2.58.68,1.44,1.3,2.93,3.27,8.11-1.16-1.64-3.34-7.64-2.86-6.1,1,3.46,1.58,4.64,2.21,5.52a28.61,28.61,0,0,1,2.45,4l-.06,1.33a106.3,106.3,0,0,0,10,14.37c3.75,4.66,7.75,9.23,11.66,13.88-.59-.39-2.08-1.86-.43.46,10,11.64,21,25.2,30.79,36.36,1.42,1.26,2.83,2.53,4.3,3.75.91,1,1.5,1.94.43,1,3.86,4.33.48,0,2.57,1.81,2.31,2.34,2.78,3.37,1.2,2,1.84,1.78,4.16,3.85,6.64,6.14l3.85,3.56,4.09,3.63,4.07,3.68,4,3.48,7,6.22-1.76-1.18a53.42,53.42,0,0,0,7.22,5.17c1,.63,1.95,1.19,3.06,1.92a42.57,42.57,0,0,1,3.83,2.9l-1.27-.79a205,205,0,0,0,23.37,15l6,3.06,2.88,1.49,1.41.73,1.43.64q2.82,1.29,5.45,2.52c1.74.83,3.39,1.68,5,2.32,1.41,0,5.63,1.69,9.73,3.12s8.17,2.41,8.88,2l5.54,1.72c1.36.41,2.38.75,3.53,1.06a126.21,126.21,0,0,0,12.38,2.77c3.87.63,5.89.13,10.69.59l0,.62c2.2.06,4.39.08,6.59.09l3.39,1.09,4.53.26c-1.8-.19-3.79-.63-3.5-.78,7,.41,17.11,1.86,17.26,2.19,5.55.24,11.11.47,16.67.66-.38.23-3.18.13-5.39.13,8.93,0,1.57.76,9.76.71-1.09-.21.61-.32.8-.44a180,180,0,0,0,20.19,1.15l-1.33.39c6.21.24,12.76.3,19.51.18s13.69-.5,20.67-1c-5,.14-3.91-.66.16-1l1.69.51c2.6-.62-4.28.11,1.08-.83,2.6-.16,3.49-.09,3.36.13a6.7,6.7,0,0,1-2.77.78c2.11-.23,4.21-.56,6.31-.85.39.15-1.08.41-1.44.7,2.54-.62,11-.67,14.62-2l.39.14c3.46-.57,6.43-1.23,9.12-1.75s5.08-1.21,7.4-1.77c4.61-1.22,8.9-2.39,14.34-4.07,0-.3,1.12-.74,2.59-1.28s3.29-1.27,4.83-2a268.73,268.73,0,0,0,26.09-9.2c6.39-3,1.71-1.25,4.5-2.8.69.3,9.83-3.84,5.23-1.38,11-5,14-6.46,27.45-13.52-1.57.54-3.28,1.27-2.49.69,2.44-1.28,5.71-2.59,5.47-2.19l-.63.37c7.48-4.14,16.4-8.26,24.93-12.23s16.66-7.94,22.32-11.8l-.64.43c4-2.48,8-5.08,11.88-7.76,5.54-3.46-3.09,2.44,1.15.09,6.22-4.51,11.14-8.05,15.66-11.59a95.06,95.06,0,0,0,12.9-11.81,52.94,52.94,0,0,0,7.08-6.81c2.61-3,5.38-6.47,8.06-10.17,5.35-7.41,10.26-15.56,14-21l-.69.47c1.44-3.09,2.26-3.44,3.58-5.57-.41.17-2.12,3-1.23,1.11,6.92-12.6,13.87-25.7,20.17-39.25A411.91,411.91,0,0,0,604.39,400a28.08,28.08,0,0,0,1.91-8.63c.16-1.92.62-4.1,2.84-10.53-.1,1.3-.23,2.6-.4,3.89.7-2.63,1.26-5.31,1.94-8s1.38-5.32,2-8c1.21-5.39,2.53-10.78,3.58-16.21a297.62,297.62,0,0,0,5-32.33,13,13,0,0,1-.09,3.4,71.93,71.93,0,0,0,1.31-9.93c.15-1.8.26-3.46.3-4.68a6.66,6.66,0,0,0-.12-2c.31-3.3.41-.73.78-2.75a75.25,75.25,0,0,0,.48-7.65,32.92,32.92,0,0,1,.32-6.06c.1-.41.09,1.27.08,2.1,0-1.48.15-4.9.27-7.6s0-4.7-.26-3.3c.23-4,.27-7.82.19-11.44q0-2.72-.06-5.28c0-1.7,0-3.36,0-5a30.71,30.71,0,0,1-.31-3.91c-.08-1.49-.12-3.11-.17-4.64-.07-3.07-.2-5.78-.7-6.41.47.26.44-3.24.18-7.44s-.85-9.08-1.35-11.56c.44,1.65-.17-4.4.41-2.47-.28-2.87-.63-5.61-1-7.5s-.61-2.93-.78-2.4c-.22-10.69-3.77-21-3.45-27.09-3.34-16.79-7-32.17-10.79-47.06.49.17,1.51,4.29,2.46,8.28s1.82,7.83,2.21,7.4c-1.76-7.08-3.35-12.61-4.91-18.13s-3.31-11.06-5.72-18c-.63-1.79-.35-1.32.18-.26s1.2,2.73,1.49,3.3a138.36,138.36,0,0,0-8.88-19.55A73.52,73.52,0,0,0,581.2,86.31a17.13,17.13,0,0,1,2.08,1.92l-2.69-3c-.83-.81-1.45-1.32-1.48-1.07.63.57,1.27,1.13,1.86,1.74,1.18,1.76-.73,0-3.21-2-1.19-1-2.61-2-3.68-2.83a13.42,13.42,0,0,0-2.07-1.3c2,.93-.36-1.23-2.67-3s-4.42-3.33-1.08-2c-.74-.45-1.58-.93-2.21-1.24s-1.07-.43-1-.22c-2.1-1.4-2.7-2-.36-.87a46.67,46.67,0,0,0-6.7-3.44c-1.27-.54-2.43-1.07-6.17-2.92.12-.17,1.66.5,2.54.7-4-1.58-7.94-3-14.29-6,.43.06-.25-.41,1.66.44-5.52-2.4-10.33-4.14-15.21-6.06s-9.85-4-15.7-7.05c3.87.89-3.92-2.17-4.21-3.16l-6.46-2.89,2.39,1.57C497,41,491.84,39.07,487.14,36.53l4.28,1.73-10.54-4.91,5.81,3.1c-5.82-2.37.2,1.14-7.16-2.61,1.55.65-5.6-2.65-8.38-4.36h0a105.81,105.81,0,0,1-10-4.06c-1-.68,1.21-.4.55-.84-1.53-.27-4.89-1.69-8.41-3a63,63,0,0,0-9.07-2.89c1.25.28,1.45-.06,1.08-.28-.86-.14-1.72-.25-2.58-.35-2.69-1.06-3.06-1.27-2.52-1.42a15.18,15.18,0,0,0-3.27-.93c-.32,0-.07.17.14.33.4.33.63.56-4.24-1.09.78.19.43,0,2.07.41-9.88-3.17-19.52-4.49-28.94-5.69-2.72-1.07,8.3.77,5.18-.23a151.66,151.66,0,0,0-21.06-.92c-7.07.11-14,.76-20.63,1.35.82-.06,1.64-.15,2.46-.19-.87.6-3.32.78-6.4.92-1.54.07-3.22.24-4.94.41-.86.1-1.73.21-2.58.34s-1.69.34-2.51.55c1.6-.37,2-1,1.61-.77-9,1.35-18.24,3.76-31.34,7.87l1.56-.72a168,168,0,0,0-19,6c-1.51.89-4.56,2.19-2.55,1.74a50.66,50.66,0,0,0-11.89,5.74,41.24,41.24,0,0,0-5.14,3.92c-.78.75-1.56,1.48-2.34,2.22l-2.06,2.43a42.8,42.8,0,0,0-6.06,10.83,100.92,100.92,0,0,0-3.59,11.53c.31-1.88.72-4.51.36-3-.9,4.47-1.41,9-1.87,13.42.59-1,.48-1.72,1.22-4.47a81.75,81.75,0,0,1-.6,8.8c.4-6-.73,0-1.32,2.51.19-.41.23.49.4.29-.84,3.41-.71,3.71-.52,4.36s.37,1.63-.85,6.26l-.14-.54a90.93,90.93,0,0,1-2.11,10.51c-.92,1.41.72-3.75.35-4.09-1.26,5.23-1.83,10.58-3.9,15.06.29-1.11.68-2.46,1.08-3.8s.74-2.7,1-3.82c-1.07,2.46-1.6,3.84-2.07,5.07s-.79,2.32-1.49,4.17l.14-.37c-1.08,2.85-2.26,5.65-3.47,8.44l1-2.1a41.42,41.42,0,0,1-3.38,10c-1.56,3.4-3.36,7-5.11,11.24,3.33-8.27.24-1.53,0-2.42-1.21,2-3.08,5-2.74,4-1.65,4-3.91,6-6.48,11.5-.32.12-2.56,3.81-2.43,2.73-3,4.72,1-.9,1-.38a85.15,85.15,0,0,1-8.65,12.1l-5.51,6.61c-1,1.12-1.93,2.27-2.88,3.45s-1.88,2.41-2.88,3.59c-1.76,2-3.13,3.63-4.31,5.06l-3.27,3.72c-1,1.15-2,2.32-3.21,3.59s-2.66,2.64-4.48,4.36c-2.72,2,1.6-2.36,1.6-2.36-2.13,1.68-3.91,3.24-5.76,4.65s-3.52,3-5.5,4.59c.73-.74-.22-.24-1.61.49a18.61,18.61,0,0,0-2.7,2.35,14.62,14.62,0,0,1-3.7,2.64c.66-.68,1.47-1.59,2.93-2.94-1.86,1.53-3.85,2.83-5.79,4.27-1,.7-2,1.4-3,2.12s-2.09,1.28-3.14,1.94c-.66.17-.07-.31.86-1s2.21-1.45,2.87-2.05l-.89.61-1,.58-2.08,1.23-4.19,2.53a43.83,43.83,0,0,0-5.74,3.39l3.32-1.38c-1.83.91-1.14,0,.16-.7,2.09-1.18,3.59-2,4.66-2.48a5.51,5.51,0,0,1,1.86-.55l-3,1.84a15,15,0,0,0,3.61-1.5A38,38,0,0,0,186,214l5-3.59c1.65-1.22,3.21-2.49,4.68-3.51l-1.94,2.42c1.85-1.63,3.74-3.2,5.54-4.88,1.34-.8,2.48-1.1-.23,1.21,4.29-2.89,3.38-3.08,7.13-5.49.41-.27.27-.09-.05.23l3.61-3.53c-.62.79,1-.11-1.38,1.85,1.78-1.41,3.33-2.75,4.69-4s2.45-2.51,3.45-3.59,1.9-2,2.71-2.82a16.36,16.36,0,0,1,2.18-2l-.48.59c4.21-4.68,4.3-5,4.09-5.07s-.71.12,2.07-3.67l2.64-1.91,1.32-.95,1.28-1,.29-1.35c.82-1,2.45-3,2.35-2.46,2.66-4-.72.48.7-2,1.06-1.15,2.16-2.63,3.31-4.17s2.33-3.15,3.32-4.71c2-3.09,3.8-5.61,4.55-6,.8-2.13-3.49,4.84-.22-.95,1.86-1.09,3.92-6.61,7-11.4-.34,1.8-3.24,6.38,0,1.62.88-3.42,5.31-9.76,7.08-14.27-.28-.25.72-2.67,2.07-6s3-7.61,4.13-11.48a59.41,59.41,0,0,0,2.76-7.88c1.43-4.58,2.85-10.22,3.71-13.89l.07.24c-.24-.8.09-3.09.4-5.9s.73-6.12,1-8.92c.4.27.46,1.29.29,4.34l.63-5.24a35.71,35.71,0,0,1,.36-6.3l.37,1.39c.48-3.45.83-6.93,1.65-10.56a36.17,36.17,0,0,1,4.31-11.17c-.05-.17-.38.07-.77.42s-.77.83-1.07,1-.46.21-.32-.43a17.32,17.32,0,0,1,1.82-4c.44-.15,1-.2-.17,2,.19-.35.5-1,.9-1.74a21,21,0,0,1,1.51-2.09,29.77,29.77,0,0,0-1.73,3.37l.68-1,.47-.68a4.33,4.33,0,0,0,.41-.8,4,4,0,0,1,.3-.7,5.37,5.37,0,0,1,1-1.33c.26.3,1.81-1.6,1.73-1a18,18,0,0,0-2.57,3.08c.28-.36.56-.72.84-1.1s.65-.68,1-1a26.46,26.46,0,0,1,1.94-1.9,21.58,21.58,0,0,1,3.15-2.27c-.38,0-.36-.44,1.76-2.07a25.85,25.85,0,0,1,2.8-1.82,1.92,1.92,0,0,1,.89-.34c.27,0,.26.22,2-.71,1.3-1.09,5.37-2.79,5.24-3.35a9.27,9.27,0,0,1,3.08-.9,91.2,91.2,0,0,1,8.57-3.45c3.06-1.1,5.24-1.87,3.19-1.57l-.9.25.56-.21h0c11.19-4.11,23.83-6.55,35.37-8.83l0,.2c1.72-.35,3.54-.76,5.39-1.05l5.53-.89c3.63-.47,7-1,9.5-1.34,2.08-.18,4.92,0,4.05.29l5.95-.47c1.79,0,3.88-.07,7.75.12-5.39.32,1.86.27-5.52.26l4.39.11,3.41.2c1.1,0,2.21.07,3.52.08s2.8.07,4.67.07c-1.28.17,0,.41,2,.65s4.76.62,6.41.73l-4.79-.91c1.84.18,3.58.34,5.25.58l4.91.84-1.87.37,2.57.53c.84.17,1.67.38,2.5.56,1.64.36,3.26.65,4.84,1,3.13.74,6.17,1.28,9.07,2.06a69.57,69.57,0,0,1,16,5.59c1.84.48.08-.34-1.76-1.08s-3.72-1.55-2-1.23c6.18,2.26,12.13,5.8,14,6.58,8.11,3.88,8.1,2.41,16.57,6.6-1-.71-1.76-1.8,4.73,1,5.93,2.91,6.88,4.42,3.05,2.77-1.44-.67-2.09-1.06-2-1.11-2-.84-4.53-1.95-2.28-.59l.87.15c2.86,1.61,11,5.56,9,5,4.58,2,2.09.58-1.19-1.14,7.47,4,11.89,5.81,19.66,9.8-1.2-.71-2.22-1.53-1-.92,5.72,2.89,7.05,3.38,7.93,3.61s1.31.21,5.28,2c4.36,2.35-2,.08,6.14,3.36,4.8,2.35.79,1-1.24.35,7.51,2.78,13.54,6.14,17.6,8.09l-3.87-1.52c2.32.9,4.17,1.74,6,2.6l-2-1.41c2.2,1.06,4,2,3.92,2.12,2.4.79-1.38-1.57,3.29.23.7.4,1.61.87,2.59,1.38s2,1,3,1.54c2,1,3.6,2,3.92,2.59a31.64,31.64,0,0,0-3.7-2.08c-.46-.2-.34,0-.18.17.32.41.81.9-3-1.05a49,49,0,0,1,5.34,2.92c.28.24-.36-.06-.94-.36,2,1.33,3.27,2.1,4.15,2.62a11.69,11.69,0,0,0,2,.92c1.06.46,2.31.77,6.28,3.79-1.21-.49,1.41,1.94,2.65,3-1.49-1.31-1.82-1.68-1.31-1.53a14.26,14.26,0,0,1,3.19,2c2.25,2.28,3.49,3.48,4.46,4.44l1.37,1.31a21.24,21.24,0,0,1,1.4,1.6l-1.17-1.52-1.25-1.46a12.23,12.23,0,0,1,2.41,2.29c.5.58,1.08,1.22,1.69,2l1.93,2.47c0,.47-2.61-3.15-1.74-1.8a30.45,30.45,0,0,1,4.74,6.91c1.5,2.69,2.86,5.71,4.62,8.72,1.15,3-.47.57.58,3.19a46.7,46.7,0,0,1,2,4.29c.45,1.2.78,2.21,1.11,3.24.62,2.08,1.25,4.18,2.66,8-.11-1.21-.27-1.89-.07-1.61s.67,1.53,1.72,4.25c-1.36-4.31-2.91-8.55-4.66-12.69.65,1.29,1.26,2.6,1.85,3.93s1.16,2.66,1.73,4c-1.22-3.92-3.17-8-4-10.33,1.91,3.69,1.63,3.36,1.28,1.38,1.4,5.46,4.21,10.35,5.46,16.78l-1.2.11c1.9,9.54,4.73,16.77,7.07,29.28l-.65-4.05c.82,1.57,1.7,7.68,2.66,11.69-.46-.3-.09,2.26,0,4,.23-.26,1.69,9.16,2.62,10.17l.43,5.69c1.41,10.18,2.94,11.42,4.09,21.25-.8-2.9-.47,1.59-1.67-4.93.46,3.27.72,6.22,1,6.24a50.61,50.61,0,0,0,.8,5.62,44.55,44.55,0,0,1,.7,6.46,19.5,19.5,0,0,1,1.07,5.48c0,.41-.19,0-.19,0,.19,0,.74,5.76.91,2.5-.05,1.28-.05,2.68,0,4.17s.06,3.08.13,4.71c.17,3.28.34,6.79.51,10.25.34,6.93.48,13.71-.08,18.13.11,3.6,0,7.57,0,11.45s-.28,7.68-.41,10.95c-.1-.43-.2,0-.1-1.27a33.73,33.73,0,0,0-.1,7.44,33.56,33.56,0,0,1-.33,8.38c-.58,2.58-.5,1.22-.41-.39s.25-3.46,0-1.84a5,5,0,0,0-.74,2.59c-.19,1.32-.35,3-.5,4.91-.32,3.76-.59,8.23-1.5,11.58l.16-1.66a79.11,79.11,0,0,0-1.27,9.4c-.41,3.61-.92,7.63-1.69,11.87,0,0,0-.43-.18-.08-.19,3-.88,7.17-1.61,11.68s-1.87,9.26-2.7,13.33c.1-2.64.6-3.74-.26-2.33-.39,1.82-.13,1.61,0,1.84s.26.94-.64,4.55c-.89,2.26-2.5,7.38-3.21,7.92l1.77-6.77a29.05,29.05,0,0,0-1.89,6c-.5,2.23-1.06,4.45-1.62,6.2l-.17-.54c-1.48,5.15-2,7.83-2.74,10.56-.34,1.36-.7,2.76-1.2,4.49s-1.09,3.83-2.12,6.52l.63-1c-1.42,6.19-2.21,4.82-3.82,10.94l-1.43,1.48c-.68,2-1.85,5.42-3.16,9.26s-3,8-4.43,11.44c.57-2.06,1.65-5.12,2.81-8.3s2.27-6.54,3.13-9.1c-.79,1.9-2,5.19-3.23,8.19a70.68,70.68,0,0,0-2.56,6.88,49.79,49.79,0,0,1,2-5c-.72,2.44-1.65,5.23-2.84,8.34s-2.77,6.48-4.52,10.2c-.34-1-2.81,3.78-5.68,9.36-1.39,2.81-3.08,5.73-4.54,8.3a42.88,42.88,0,0,1-3.8,5.87,176.82,176.82,0,0,1-11.23,18.79c-4.2,6.17-8.87,12.36-14.23,18.77,2.35-1.9,1.58-1,.41.47s-2.8,3.26-2,3.28a35.12,35.12,0,0,1-4,4.2c-1.45,1.36-3,2.63-4.46,3.92s-3.06,2.52-4.64,3.7c-1.19.77-.52.12.38-.72s2-1.94,1.75-1.92a40.64,40.64,0,0,1-3.25,2.71,6.4,6.4,0,0,1-1.24.78,11.82,11.82,0,0,0-3,1.83c.59-.19.11.39-1,1.38a56.06,56.06,0,0,1-4.93,3.71c1-.58,1.94-1.21,2.92-1.82s1.94-1.21,2.88-1.86a45.34,45.34,0,0,1-9.08,6.45,90.16,90.16,0,0,0-9.52,6c1-.77,2-1.54,3-2.34-2.53,1.76-7.4,4.75-12.34,7.62s-9.88,5.72-12.36,7.58c-1,.38-2.49.76-.1-.59-13.29,6.73-29.15,16.08-39.83,20.63l.89-.77c-2.46,1.3-4.11,2.64-7.38,3.87.11-.19.88-.76-.29-.22a97.9,97.9,0,0,1-9.87,5l2.71-1.63c-6.67,2.9-11.68,5.31-16.43,7.64-2.36,1.18-4.69,2.27-7.11,3.41s-5,2.23-7.79,3.36c-.27-.77-11.08,2.86-16.54,4.4l.15-.19c-8,2.47-14.86,4.58-21.62,6.32a195,195,0,0,1-21.15,4.53c-4.86.18-13,1-22,1.33s-18.63.43-26.42,0c2.38.22-.4.68-3.19.69-3.66-.26-10.16.25-9.54-.53l1.3.07c-2.73-.9-10.26-1.06-16.14-1.47l-1,1c-7.65-1.27-17.75-1.85-27-2.44S214,610.13,210,608.91c-3.71-.2-8.24-.88-11.9-1.23l.29-.53c-5-.95-8.78-1.74-12.79-2.69s-8.31-2-14.31-3.85c.85.16,1.71.25,2.56.37-.84-.26-1.62-.46-2.33-.65s-1.37-.38-2-.52c-1.25-.29-2.35-.46-3.45-.63s-2.18-.33-3.38-.58c-.6-.13-1.23-.28-1.9-.47s-1.36-.5-2.11-.82l-1.5-1.57c-11.47-4.81-22.14-11.5-32.69-17.81.24,0,.68,0,2.39,1.08-1.21-.83-3-2-4.92-3.38s-4-3-5.85-4.32-3.55-2.63-4.69-3.39-1.76-1-1.52-.47c.18-.35-2.35-2.32-5.54-4.81-1.57-1.27-3.32-2.66-5-4S96,556.08,94.71,555l1.14.3c-2.33-1.67-3.56-2.5-5-3.58A65,65,0,0,1,85,546.58c-1.3-1.38-.87-1.48.82.39a33.29,33.29,0,0,0-4.2-4c-.54-.44-1.11-.91-1.88-1.62s-1.67-1.71-2.94-3.13l2.22,1.8a46.43,46.43,0,0,0-7-6.48c-2.93-2.85-8.26-9.14-8.48-10.22a32.58,32.58,0,0,1-5.9-5.8c-.2-.51.81.45,1.32.94-6.85-8.41-11-11.81-15.39-17.89a2.28,2.28,0,0,0-.55-1.18l7,8.4c1.76,2.08,2.77,3.29,2.55,3.06.39-.34-4.07-5.68.07-1.94-3.93-4-10.69-10.79-14.82-16.2a6.42,6.42,0,0,1-.43-.8l.49.5c-1-1.24-1.89-2.29-2.79-3.26-1.31-1.73-2.12-2.84-3.42-4.45A22,22,0,0,0,29,480.87c-1.41-1.83-3-3.92-4-5.31-.3.56-2.79-3.18-.77.54-.28-.47.43.49,1.8,2.32.33.41.7.89.93,1.14l-.18-.16c1.37,1.8,3.19,4.13,5.32,6.74a39.33,39.33,0,0,1-5.95-7.28c-1.35-1.2-2.78-2.58-3.55-3.39-1-2.16-2.66-5.22-3.9-8a27.38,27.38,0,0,1-2.17-5.79c-.6-1.13-1.11-2.38-1.64-3.65-.26-.63-.54-1.28-.81-1.93l-.68-2-.7-2c-.22-.68-.38-1.39-.58-2.08-.37-1.39-.78-2.76-1-4.15-.65-2.74-1-5.41-1.47-7.79s-.71-4.49-1-6.14a12.79,12.79,0,0,1,0-3c.13-.62.28-1,.38-1.57a43,43,0,0,0,.29,4.69c-.11-1.48-.22-3.33-.19-5.28s.06-4,.13-5.95c.17-3.85.4-7.14.13-7.9.63-3.73.67-2.65.7-1.94,0,.36,0,.63.1.17s.23-1.67.59-4.23l0,1.41c1-5,1.93-9.52,2.75-13.88s1.6-8.52,2.4-12.75A140.74,140.74,0,0,1,23.9,354a14.29,14.29,0,0,1-1.06,2.48c4.31-12.22,9-24.71,15.08-36.54s13.31-23,22.08-32.24c5.1-5.11,5.21-6.07,8.24-9.31l1.56-.62c.85-.93,1.64-1.92,2.55-2.8l2.71-2.64c1-.9,2-1.74,3-2.53s2-1.47,3.06-2.14c2.06-1.35,4.16-2.55,6.35-3.77,4.38-2.43,9.11-4.91,14.83-8.64l-1.73.5c4.31-2.33,13.5-7.7,13-6.9a10.32,10.32,0,0,1,3-1.88l.28.2,10.31-6.27c8.31-4.29-.68,1.81,11.31-4.7,4.39-2.54,12.21-7.74,10.44-7-1.8,1-4.67,2.34-5,2.13l4-2.37c.28-1.22,3-3.77-7.34,1.13l-6.68,4.31-2.46.84,5.84-3.24a37,37,0,0,0-7.68,4.45,13.13,13.13,0,0,0-3.15,1.16l-6.4,4.53c-1,.13,2.71-2.32-2,0-3,2.11,3.46-1-1.71,2.17-3.53,1.46-2.72.62-6.45,3.08-.67.09.09-.5,1.58-1.44-3.33,2.16-9.14,5.15-10.69,6.59a67.1,67.1,0,0,0-7.22,3.82c-2.44,1.41-4.42,2.56-4.48,2.08-1,.82-5.63,4.31-8.62,6.48,2.49-2.34-.4-.45-3.7,2s-6.89,5.5-6.57,4.49c-.86.94-2,2.29-3.49,3.76-.72.74-1.52,1.53-2.35,2.34-.42.41-.86.82-1.28,1.25s-.84.9-1.26,1.37l-2.6,2.8c-.86,1-1.78,1.87-2.56,2.88-1.6,2-3.13,3.93-4.44,5.71a11.68,11.68,0,0,1,1.29-1.84c-3.24,3.8-4.19,4.9-6.28,7.34.08.25-.18.82-.56,1.62s-.92,1.84-1.54,3c-1.23,2.22-2.74,4.78-3.54,6.72-3.74,4.85,1.09-3.65-.5-2.39.69.07-4.84,9.45-3.29,7.94-2.59,3.88-2.07,3.43-3.77,5.25.44,1.14-1.76,4-2.89,7.7-.84,1.46-1.32,2.29-1.64,2.79a10.18,10.18,0,0,1-.67.89c-.33.43-.59,1-1.92,4.42C25.26,338,27.55,331.8,27.55,331.8Zm8.78,164.55h0c-1-1.14-1.79-2.12-2.31-2.75Zm9.36,11.24-4.06-4.88c-.18-.52.33-.22,1.27.92C42.29,503.1,44.41,505.81,45.69,507.59ZM29.13,481.25a12,12,0,0,1,2,2.75c-.69-.84-1.48-1.83-2.53-3.12l-.22-.17A3.45,3.45,0,0,1,29.13,481.25Z"/>
<path class="cls-11" d="M26.05,478.42c-.2-.26-.33-.39-.59-.73.23.4.47.78.71,1.17l.63.54Z"/>
<path class="cls-11" d="M319.05,22.84l.3-.08a4.29,4.29,0,0,1-.64.12A3.26,3.26,0,0,1,319.05,22.84Z"/>
<polygon class="cls-11" points="212.07 614.28 212.07 614.13 210.78 614.11"/>
<path class="cls-11" d="m272.45 79.92a5.13 5.13 0 0 0-0.28 1 7.5 7.5 0 0 0 0.28-1z"/>
<path class="cls-11" d="m264.2 113.39c-0.59 1.52-1.24 3-1.86 4.52 0.84-1.91 1.43-3.37 1.86-4.52z"/>
<path class="cls-11" d="m253.44 137.63a1.28 1.28 0 0 0 0 0.57z"/>
<path class="cls-11" d="M583.28,88.23c.24.28.48.56.7.8C585.65,90.88,584.54,89.6,583.28,88.23Z"/>
<path class="cls-11" d="m471.17 29.49c1.26 0.46 2.52 0.9 3.81 1.45-1.98-1-3.63-1.71-3.81-1.45z"/>
<path class="cls-11" d="M622.52,223.61s0,0,0,0c0,.3.06.57.09.87Z"/>
<path class="cls-11" d="m480.32 33.44a56.23 56.23 0 0 0-5.34-2.5c1.66 0.81 3.62 1.78 5.34 2.5z"/>
<path class="cls-11" d="M174.54,218.64l-1.15.53s0,.08-.1.14Z"/>
<path class="cls-11" d="m173.29 219.31-1.29 0.69a7.31 7.31 0 0 0 1.29-0.69z"/>
<path class="cls-11" d="m169.42 221.4 2.58-1.4a16.3 16.3 0 0 0-2.58 1.4z"/>
<path class="cls-11" d="m203.85 199.59 0.18-0.4c-0.14 0.16-0.21 0.3-0.18 0.4z"/>
<path class="cls-11" d="m211.83 192.52c-1.92 1.68-5 3.94-7.64 6.34l-0.16 0.33a47.06 47.06 0 0 1 3.72-3.11 30.39 30.39 0 0 0 4.08-3.56z"/>
<path class="cls-11" d="M242.81,160.16c-.84,1.25-1.76,2.45-2.67,3.65l-2.72,3.61c1.1-1.14,2.56-2.66.18.71,3.62-4.44,3.18-4,2.71-3.71-.24.16-.48.3-.22-.2a12.48,12.48,0,0,1,.83-1.3C241.36,162.27,242,161.4,242.81,160.16Z"/>
<path class="cls-11" d="m257.32 136.12c-2.1 4.4 0.32 0.09 0.3 0.37 1.19-2.87 1.48-3.56-0.3-0.37z"/>
<path class="cls-11" d="m380.59 11.37-0.45 0.53c3.69-0.24 0.02-0.2 0.45-0.53z"/>
<path class="cls-11" d="m419.22 11.21c-1.18-0.37-2.37-0.62-3.56-0.93l-1.8 0.19c1.78 0.25 3.58 0.42 5.36 0.74z"/>
<path class="cls-11" d="m440.27 20.56-1.56-0.43c2 0.59 4 1.14 5.9 1.8-1.43-0.5-2.89-0.93-4.34-1.37z"/>
<path class="cls-11" d="m620 263.14 0.6-1.13c-0.18-2.52-0.9-3.01-0.6 1.13z"/>
<path class="cls-11" d="m597.31 406.42a34.47 34.47 0 0 0-3 7.66c1.16-3.08 2.51-6.08 3-7.66z"/>
<polygon class="cls-11" points="251.24 612.62 254.18 612.62 248.64 612.41"/>
<path class="cls-11" d="M217.44,232.52c0,.28.36.44.72-.08l-.2-.76Z"/>
<path class="cls-11" d="M221.16,230.21c.27-.74.45-1.75-.32-1.82,0,1-.37.9-.34,2-.36.51-.88.67-1,.42,0,.28-.76.63-.67,1.16a3.21,3.21,0,0,0,2-2.09C221.14,229.81,221.11,230.09,221.16,230.21Z"/>
<path class="cls-11" d="m273.75 203.18a2.56 2.56 0 0 0-0.39 0 2.13 2.13 0 0 0 0.39 0z"/>
<path class="cls-11" d="m308.92 211c-0.24-0.14-0.37-0.15-0.41-0.11 0.23 0.11 0.43 0.22 0.41 0.11z"/>
<path class="cls-11" d="m313.39 215.35c-0.08-0.1-0.16-0.18-0.24-0.27 0.07 0.14 0.15 0.26 0.24 0.27z"/>
<path class="cls-11" d="m273.75 203.18 1 0.11c0.05-0.22-0.52-0.11-1-0.11z"/>
<path class="cls-11" d="M226.05,223.16a1.58,1.58,0,0,0-.29.49l.34-.39Z"/>
<path class="cls-11" d="m258 207.42-0.29 0.1a2.18 2.18 0 0 0-0.14 0.34c0.18-0.15 0.32-0.3 0.43-0.44z"/>
<path class="cls-11" d="M246.68,212.56c.26-.11.08-.65.06-.92a.87.87,0,0,1-.36.63A.7.7,0,0,0,246.68,212.56Z"/>
<path class="cls-11" d="M229.7,223l-.21.29Z"/>
<path class="cls-11" d="M266.64,205.07a.32.32,0,0,0,.15.17A.3.3,0,0,0,266.64,205.07Z"/>
<path class="cls-11" d="m207.48 243.84s0.06 0 0.09 0-0.03-0.08-0.09 0z"/>
<path class="cls-11" d="M218.56,233.48l-.11.18a2.41,2.41,0,0,0,.21.24Z"/>
<path class="cls-11" d="m320.2 224.15v-0.05c-0.2-0.2-0.13-0.1 0 0.05z"/>
<path class="cls-11" d="m297.56 317.21c1.23-0.42-1 1.78 0.68 1-0.24-0.05 0.65-1.74-0.68-1z"/>
<path class="cls-11" d="m226.35 223 0.4-0.36a2.18 2.18 0 0 0-0.4 0.36z"/>
<path class="cls-11" d="m298.24 318.22 0.17-0.08z"/>
<path class="cls-11" d="m328.69 248.15a0.82 0.82 0 0 0 0.23-0.29c-0.06 0.01-0.12 0.08-0.23 0.29z"/>
<path class="cls-11" d="m324.47 229.28 0.15 0.47a2 2 0 0 0-0.15-0.47z"/>
<path class="cls-11" d="M329.53,258.28a1.4,1.4,0,0,0-.09.71.41.41,0,0,0,.07-.11A.73.73,0,0,1,329.53,258.28Z"/>
<path class="cls-11" d="m328 268.81a1.29 1.29 0 0 0 0.16-0.17v-0.34z"/>
<path class="cls-11" d="m195.28 275.41a1.66 1.66 0 0 1 0.59-0.42c-0.42 0.1-0.24-1.55-0.59 0.42z"/>
<path class="cls-11" d="m226.27 223.39a0.4 0.4 0 0 1 0.08-0.4l-0.25 0.27c0.03 0.08 0.08 0.14 0.17 0.13z"/>
<path class="cls-11" d="M333.93,259.05c-.07.6-.14,1.19-.25,1.79A10,10,0,0,0,333.93,259.05Z"/>
<path class="cls-11" d="m230.67 340.34h-0.41a0.76 0.76 0 0 0 0.41 0z"/>
<path class="cls-11" d="M333,266.12a3.26,3.26,0,0,0-.55.93.6.6,0,0,0,.1.23C332.76,266.9,332.89,266.51,333,266.12Z"/>
<path class="cls-11" d="m195.88 275z"/>
<path class="cls-11" d="M197.59,263.3c-.57,1.61.42,1,.71,1.46-.4,2-.79.73-1.36,1.28-.17,1.28.19,2.38-.05,3.29-.14,0-.22.2-.32,0a8.19,8.19,0,0,1-.33,2.67,7.27,7.27,0,0,0-.14,2.87.51.51,0,0,1-.22.16,1.35,1.35,0,0,1,1,0c-.15.73.23,1.44-.3,1.64.08-.45-.1-.52-.22-.76l.08.81c-.79.58-.06-1.1-.57-1.19a24.11,24.11,0,0,1-.06,4.55c-.36.08-.33-.61-.32-1.14s.05-.89-.37-.15l.54-1.77c-1.28,1.22.26-1.1-1.08,0-.61,2.39,0,2.75-.52,5.14.34.58.57-.12.91.45.43,3.44-1.9,2.61-1.06,5.19.44.67,1.28.91.88,2.71l-.78-.6c0,2.37,1.09,1.3.76,3.78-.33-.41-.39-1.83-.45-1.46-.49,1.63.52,1.1.61,2.31l-.66.32a33.85,33.85,0,0,0,.83,3.86c.41,1.31.74,2.65,1.15,4-.23-.1-.55-.52-.6.16,1.1,3.36,1.92,7.28,3,10.6.34.32.72.63,1.09.94.13.27,0,.62-.23.37.4,1.3.36-.1.85.37.38.65.15,1.05-.22.7a51.55,51.55,0,0,1,5.33,7.5l-.43-.28c1,1.72,2.29.92,3,2.63l-.3-.19a32.56,32.56,0,0,0,4.47,4.47c.75.72,1.56,1.3,2.25,2a24.2,24.2,0,0,1,1.9,1.88c.49-.2,1.26.51,2.11,1s1.65,1,2,.58c.9.82,1.21,1.17,1.62,1.58a10,10,0,0,0,2.43,1.68c.82.41,1.51-.13,2.6.11l-.19.59,1.63-.11c.18.32.35.66.54,1l1,.14c-.39-.15-.77-.51-.66-.66a7,7,0,0,1,2.45.86c.72.36,1.24.73,1.23.89l1.94.17,1.94.06c-.13.24-.77.21-1.31.28,2.14-.28.27.71,2.23.45-.23-.18.18-.34.24-.46a10.84,10.84,0,0,0,4.6.66l-.33.41a53.49,53.49,0,0,0,9.22-.26c-1.16-.11-.94-.85,0-1l.43.62c.56-.46-1-.16.19-.76,1.18,0,.86.66.2.94l1.42-.36c.1.18-.22.32-.29.57.55-.43,2.58.33,3.33-.48l.12.18a62.42,62.42,0,0,0,7-1.69c-.09-.55.92-.69,1.53-1.35a30,30,0,0,0,6.13-1.37c1.4-.83.27-.61.82-1.18.29.44,2.39-.41,1.43.35a34.79,34.79,0,0,0,6.11-3.3c-.43,0-.84.08-.72-.17.52-.35,1.36-.42,1.4-.16l-.13.11a23.31,23.31,0,0,1,5.67-2.74,20.37,20.37,0,0,0,2.82-1.29,6.3,6.3,0,0,0,2.05-1.67l-.11.14,2.3-2.28c1.22-.8-.48.84.58.45,2.24-2.74,4.4-3.22,6.19-5.5,1.31-.16,2.8-1.45,4.19-3s2.77-3.14,4.16-3.88l-.38-.12c.28-.78.78-.54,1.22-.9-.26-.13-.79.4-.61-.08,4-5.06,9-9.94,12.73-15.55,1.31-2.08-.84-2.1,1.36-4.37l.17,1.09c1.7-4.67,4.58-9,5.59-13.81.05.33.24.41.07.84.81-.79,1.26-3.56.89-3.69.27-.7.39-.06.72-.44.56-.91.15-2.64.76-3,.1-.07.07.32.05.51,0-.7.83-3,.15-2.52.73-1.69.51-3.44,1.14-4.78-.45-1,.79-3,0-3.45.88.27,1.12-3.07.77-4.25.25.41.35-1,.7-.5.08-1.32,0-2.53-.49-2.32a5.65,5.65,0,0,0,.2-3.5c-.2-1.09-.37-2,.3-2.74a98.83,98.83,0,0,0-2.48-10.79c1-.08.83,3.78,1.73,3.47a30.37,30.37,0,0,0-1.52-4.09,27.36,27.36,0,0,1-1.36-4c-.12-.86.51.34.74.58-1.34-3.07-2.06-6.18-3.89-8.61.07,0,.3.22.5.46-.29-.51-.5-1.29-.83-1l.35.46c-.05.56-.59.18-1.15-.32s-1.21-1.07-1.36-1c1.51.26-1.2-2.64.85-2.07-.25-.3-.7-.59-.88-.37-.25-.52-.21-.76.37-.44-1.38-1.63-1.25-.8-2.38-2.32.16-.11.45.15.76.17a7.34,7.34,0,0,1-2.65-2.41c.15,0,.15-.24.46.12a16.19,16.19,0,0,0-2.87-2.46c-.49-.35-1-.72-1.46-1.14a14,14,0,0,1-1.49-1.43c1.23-.06-.57-.89-.22-1.57l-1.42-.83.29.68a12.3,12.3,0,0,0-1.73-1.05,5.64,5.64,0,0,1-1.57-1l1.05.34-2.29-1.37,1.09,1.07c-1.39-.46-.38.86-1.82-.31.36.12-1.19-.71-1.6-1.46h0a5.06,5.06,0,0,1-2.3-.85c-.13-.34.56-.65.48-.87-.87.21-3.09-1.21-4.13-.93.32,0,.48-.39.42-.51-.24.09-.48.16-.72.26-.55-.37-.61-.47-.41-.73-1.81-.74.27,1.1-1.78-.06.19,0,.13-.08.51,0-2.14-1-4.38-1-6.4-1.69-.46-.87,1.87.24,1.3-.54a31.19,31.19,0,0,0-4.76-.41c-1.6,0-3.17-.06-4.65-.2l.55.11c-.47,1-2.18-.69-3.71-.16.37-.08.49-.59.39-.47a12.84,12.84,0,0,0-3.24.14c-1.18.18-2.47.43-4,.76l.36-.31a12,12,0,0,0-2.21.05c-.79.1-1.6.21-2.25.24-.35.31-1.08.4-.57.71a8.28,8.28,0,0,0-3,0,17.19,17.19,0,0,0-2.69.85c-.88.31-1.71.71-2.56,1a8.8,8.8,0,0,1-2.67.39c.4-.14.88-.55.56-.44L257,205c.38.36.47.14,1.18.28a4.27,4.27,0,0,1-1.68,1.11c1.14-.76-.27-.69-.91-.72.14.1,0,.31.11.43-1.76-.2.08.94-2.09,1.22V207a9.93,9.93,0,0,1-2,1.29c-.55-.35.67-.57.55-1-1.12.49-1.76,1.88-3,1.88.4-.36,1.06-.68,1.47-1a4.07,4.07,0,0,0-2.25.45l.08,0c-.65.21-1.33.41-2,.66l.54-.1c-.69,2-2.64,1.64-3.94,3.49,1.28-1.75,0-.6-.14-1.2-.53.12-1.32.36-1.21.1-.59.9-1.61.49-2.38,1.84-.16-.13-.89.55-1,0-1,.81.44.12.48.38A8.78,8.78,0,0,1,236,215.6a13.28,13.28,0,0,0-1.69,1,6.42,6.42,0,0,0-1.46,1.48c-1.71,1.74-1.59,2.59-3.1,4.22-.78.23,0-.93,0-.93a6.31,6.31,0,0,0-2.47,2.12c.06-.28-.21-.23-.62-.16-.65.65,0,.91-1.06,1.54a2.9,2.9,0,0,1,.14-1.21c-.68.87-1.2,1.89-1.88,2.78-.45,0,.13-.83.26-1.27-.4.5-.95,1.11-1.36,1.7a2.71,2.71,0,0,0-.64,1.47l.7-.44c-.3.35-.49-.15-.33-.47.44-1.08,1.24-1,1.42-.86l-.49.64c1.4.26,2.14-2.36,3.4-3.37l.07,1,.76-1.59c.4-.07.88.12.38.73,1.12-.44.56-.89,1.59-1.19.13,0,.12,0,.06.14l.7-.9c-.06.28.52.34-.09.68,1.84-.88,2.07-2.54,3.07-2.47l-.1.14c2-1.89-.16-.65,1.07-2.47.67.12,1.34.24,2,.39l-.13-.65c.25-.14.74-.43.79-.17.63-.94-.3-.11,0-.79,1.42-.35,3-2.31,3.8-1.66.17-.65-1.3.41-.23-.65.89.65,1.34-1.06,2.68-1.27-.07.66-1.23,1,.09.8.19-1.18,2.19-1.06,3-1.68-.3-.66,1.86-1.36,3.36-2.31,0,.14.79-.14,1.78-.48s2.21-.72,3-.92v.13c0-.8,1.65-1.27,2.75-1.85.1.43,0,.67-.6,1.09l1.07-.41a2.35,2.35,0,0,1,1.16-.86l-.09.61a22.65,22.65,0,0,0,2.14-1,8,8,0,0,1,2.59-.73c0-.53-1.91-.94.05-1.86.15.25.34.69-.16,1a1.71,1.71,0,0,1,.95-.36c-.24.21-.47.42-.7.65.92,0,.36-.49,1.07-.62.09.39.59.15.56.48-.16.08-.65,0-.88.2a4.48,4.48,0,0,1,2.2.1c-.12-.2-.12-.52.44-.71,1.5-.32.62.37,1.53.4.31-.34,1.31-.24,1.24-.83.44-.08.56.17.76.31.74-.37,3.64-.6,2.68-1.1h-.21l.13,0h0c2.54-.88,5.42-.19,8-.4v.2c1.55-.26,3.42,0,4.56-.39.46,0,1,.47.82.67a5.78,5.78,0,0,1,3,.32c-1.21.16.37.34-1.22.09,1.48.35,1.74.77,3.45.49-.63.38,1,.86,1.71.88l-1-.59a14.7,14.7,0,0,1,2.17.51l-.54.56a7.46,7.46,0,0,0,2.06.72c.69.12,1.37.16,2,.26a9.15,9.15,0,0,1,1.86.38,3.23,3.23,0,0,1,1.47,1.11c.93-.11-1.41-1-.53-1.18a6.76,6.76,0,0,1,1.65,1.31,7.22,7.22,0,0,0,.94,1c1.54,1.17,2.06-.06,3.69,1.2-.1-.33,0-1,1.45-.41,1.17.89.91,1.82.07,1.48-.29-.18-.39-.33-.33-.39-.42-.2-1-.41-.65.1l.28-.1c.45.6,2.06,1.65,1.46,1.72,1,.4.6-.07,0-.61a17.73,17.73,0,0,0,1.76,1.51,8.87,8.87,0,0,1,1.77,1.54c-.13-.29-.16-.69.06-.49,1.84,2,1.24.43,2.65,1.67.49,1-.88.34.65,1.46.62,1-.29.6-.74.42a4.1,4.1,0,0,1,1.56,1.69l.83,1.6a7.36,7.36,0,0,0-.7-.55,4,4,0,0,1,.94,1l.07-.7c.25.47.51.81.35.93.57.23.38-.81,1.37-.21.25.67,1.44,1.61,1.05,2.16-1-1.95-.39.54-1.49-.92a3.42,3.42,0,0,1,.71,1.09c0,.1-.15,0-.26-.09.65,2,1.17.37,2.24,2.26-.44-.06-.33.76-.09,1-.43-.75.3-.66.95-.09.41,1.36.86,1.26,1.17,1.93l-.26-.81c.44.1.73.75,1.25,1.6-.2.18-.55-.73-.51-.36.53.35.6,1,.7,1.69a4.69,4.69,0,0,0,.63,2.07c0,.74-.6.29-.55.92,1,1.43.12,1.87,1,3.44.31-.62.17-.68,1,.4l-1.16-2.71c.41.52.8,1.06,1.2,1.6-.25-.86-.8-1.72-.92-2.24.67.73.53.68.76.15-.32,1.39,1.13,2.21,1,3.73l-1.15.25c0,2.14,1.44,3.5,1.51,6.29l.1-.91c.51.3.27,1.68.57,2.54-.39,0-.48.53-.7.93.29-.07.12,2,.93,2.2-.15.42-.32.84-.48,1.25-.14,2.21,1.17,2.53,1,4.7-.41-.67-.71.3-1-1.14,0,.71-.1,1.34.17,1.37-.25.4.4,2,0,2.64.15.32.58.45.46,1.26-.09.08-.2,0-.2,0,.2,0,.12,1.29.64.63-1.42,2.07-.79,6.21-2.26,7.9-.08.79-.25,1.64-.4,2.47s-.31,1.66-.51,2.35c-.09-.12-.19-.06-.08-.31-.92,1.78.76,1.49-.31,3.53-1,.89,0-1.24-.4-.64-1.35-.11-.69,2.63-1.95,3.78l.06-.36c-.84.9-.51,2.8-1.38,4.48,0,0-.07-.13-.18-.08a8.26,8.26,0,0,1-.4,2.64c-.3,1-.68,2-1,2.84-.2-.74.13-.86-.49-.79-.3.76.88.17.23,1.69-.5.34-1.27,1.26-1.82,1.13l.69-1.36c-1,.35-.9,1.76-1.41,2.4l-.22-.24c-1.12,2-.39,2.52-1.82,4.61l.34-.09c-.1,1.59-1,.74-1.26,2.22l-.89-.1a32.22,32.22,0,0,1-2.08,4.46,26.72,26.72,0,0,1,1.35-4,10.67,10.67,0,0,0-1.69,3.13,2.74,2.74,0,0,1,.59-1,8.38,8.38,0,0,1-1.92,4c-1-1.21-3.28,3.4-5.08,3.54-1.69,2.75-4.48,4.4-7.11,6.93,1.78,0-.78.74.2,1.5-.59.63-.85.84-1,.83-.81.41-1.65.75-2.47,1.12-.7.11.46-.73.22-.89-1.51,1.11-.94.1-2.09.62.47.18-.1.92-1.06,1.41.51-.15,1-.29,1.53-.47-1.68,2.11-2.4.58-4.14,2.63l.46-.79c-.49.48-1.51,1.18-2.47,2a7.07,7.07,0,0,0-2.22,2.35c-.28,0-.72-.1-.26-.5-2.79,1.57-5.7,4.54-8.27,5l.09-.38c-.5.34-.71,1-1.51,1,0-.13.09-.38-.17-.28a5.56,5.56,0,0,1-2.05,1.27l.49-.58a12,12,0,0,0-3.52,1.73,15.79,15.79,0,0,1-3.12,1.86c-.26-.8-2.7-.38-3.92-.2V335c-.87.23-1.68.42-2.44.68l-2.2.78c-.72.25-1.43.54-2.17.79s-1.51.46-2.34.66a9.12,9.12,0,0,0-2.09-.25c-.81,0-1.73.05-2.69.05a25.28,25.28,0,0,1-5.65-.28c.5.19-.11.68-.71.73-.77-.21-2.23.48-2-.33l.28,0c-.52-.88-2.12-.79-3.35-1l-.36,1c-1.52-1-3.62-1.29-5.56-1.66s-3.68-.81-4.27-1.75c-.84,0-1.72-.44-2.55-.49l.27-.5c-1.91-1-2.84-1.57-5.2-2.82l.68-.07c-1.28-.76-2.47.35-3.7-.41l.14-.93a15.47,15.47,0,0,1-1.52-1.29c-.5-.44-1-.91-1.42-1.39a16.8,16.8,0,0,0-1.47-1.33,8.31,8.31,0,0,0-1.61-1.17.55.55,0,0,1,.67.11c-.21-.22-.5-.57-.83-.95s-.63-.83-1-1.2c-.65-.73-1.26-1.23-1.57-.7.59-.51-1.64-2.17-2.67-3.24l.59-.12a4.52,4.52,0,0,1-2.51-1.94c-.14-.39.21-.53.36,0-.41-1.33-1-.64-1.5-2.27l.59.39c-.59-1.27-.71-1.08-1.43-1.59-.59-.71-.93-2.52-.55-2.88a1.82,1.82,0,0,1-1.16-1.47c.14-.17.35.08.46.2-.46-2.3-1.7-3.12-1.63-4.83a.43.43,0,0,0,.26-.34c.46,1.79.89,3.22.8,3.1.48-.16.15-1.6,1.16-.69-.35-.5-.87-1.18-1.33-1.92a5.91,5.91,0,0,1-.82-2.31,1,1,0,0,1,.13-.23l.09.14a2.22,2.22,0,0,0-.27-.88,6.86,6.86,0,0,0-.06-1.21c.39-.25-.09-1.71-.14-2.45-.55.14-.58-.84-.93.13,0-.13.09.13.17.62a1.62,1.62,0,0,0,.1.31l-.05,0c.09.48.22,1.1.36,1.82a2.3,2.3,0,0,1-.56-2,10.71,10.71,0,0,1-1-.93,9.73,9.73,0,0,0,.72-2,3.26,3.26,0,0,1,.63-1.41c-.53-2.24-.41-5.33-1.41-6.81-.12-.66.32-.75.49-1,.1.38.07.83.22,1-.28-1.32.14-3.86-.6-4.25.52-1.61.57,1,.71-1.28l.19.33a13.5,13.5,0,0,0,.56-5.9,16.69,16.69,0,0,1,.13-3,9.64,9.64,0,0,1,1.23-3.19c-.18.31-.26.47-.4.51q.79-2,1.41-4.08c.48-1.37.84-2.79,1.34-4.16l.74-2.06c.27-.68.57-1.34.87-2a20.1,20.1,0,0,1,2.2-3.69c.87-1.33.58-1.67.71-2.71l.7,0c.06-.6.11-1.2.18-1.8a6.56,6.56,0,0,1,2-2.63,6.11,6.11,0,0,0,2.11-3.13l-.54.1c.64-.86,1.75-2.94,2-2.53a.64.64,0,0,1,.27-.75l.27.16c.37-.82.77-1.62,1.16-2.44,1.44-1.48.77,1,2.68-1.27.6-.92,1.3-3,.87-2.84-.3.34-.88.76-1.14.58l.52-.89c-.59-.74-.79-2-2.93-.43l-.7,1.74-.72.17L215,234c-.88.4-.94,1.05-1.1,1.7a1.09,1.09,0,0,0-.84.29l-.36,1.94c-.42,0-.1-1.06-1-.24-.17.9,1.13-.15.53,1.1-.83.45-1,0-1.25,1.08-.28,0-.28-.28-.14-.67-.28.9-1.27,2-1.11,2.67-.92.47-1.52,2.62-2.22,2.07a7.4,7.4,0,0,1-.63,2.44c-.13-1.83-1.63,2.61-2.38,1.73a4.83,4.83,0,0,1-.72,2.68,14.82,14.82,0,0,0-1.2,3.12c0-.13-.06-.4.06-.53a10.45,10.45,0,0,1-1.41,1.72c.65.46.12,2.11.2,3.15-1.23,1-.53-1.12-1.36-1,.59.18-.31,2.45.35,2.22-.81.79-.53.75-1.34,1,.86.52-.21,1,.09,2-.95,1.27-1,.07-1.26,1.74C197.43,264.82,197.59,263.3,197.59,263.3Zm-1.12,39.29h0c-.09-.33-.17-.61-.21-.79C196.29,302,196.36,302.19,196.47,302.59Zm.85,3.21c-.09-.4-.24-.88-.38-1.39.16-.16.37-.09.46.23C197.22,304.5,197.33,305.28,197.32,305.8Zm2.29-7.47c.17.46.09.65,0,.73,0-.23-.12-.49-.22-.83l-.08-.05A.64.64,0,0,1,199.61,298.33Z"/>
<path class="cls-11" d="M198.74,297.56a1,1,0,0,1-.06-.2,1.92,1.92,0,0,0-.09.32l.2.15Z"/>
<path class="cls-11" d="M273.29,203.14h.07a.42.42,0,0,1-.15-.06Z"/>
<polygon class="cls-11" points="227 339.43 227.04 339.3 226.72 339.31"/>
<path class="cls-11" d="m255.55 205.62a0.38 0.38 0 0 0-0.27-0.05s0.14 0.04 0.27 0.05z"/>
<path class="cls-11" d="m248.34 208.59-1.09 0.3a10.68 10.68 0 0 0 1.09-0.3z"/>
<path class="cls-11" d="M242.9,211.15a.76.76,0,0,0,0,.27h0Z"/>
<path class="cls-11" d="m327.67 227.26a1.37 1.37 0 0 0 0.13 0.2c0.34 0.46 0.13 0.13-0.13-0.2z"/>
<path class="cls-11" d="m307.18 207.46a7.73 7.73 0 0 1 0.92 0.23c-0.42-0.29-0.76-0.5-0.92-0.23z"/>
<path class="cls-11" d="m334 258.86a1.34 1.34 0 0 0 0 0.2z"/>
<path class="cls-11" d="m309.25 208.38a3.2 3.2 0 0 0-1.15-0.69 4.62 4.62 0 0 0 1.15 0.69z"/>
<path class="cls-11" d="M222.13,226.83l-.21.19s0,.06,0,.09Z"/>
<path class="cls-11" d="m222 227.11-0.18 0.28c0.06-0.11 0.18-0.21 0.18-0.28z"/>
<path class="cls-11" d="m221.41 228 0.37-0.58c-0.16 0.13-0.38 0.33-0.37 0.58z"/>
<path class="cls-11" d="m228.14 221.59-0.07-0.22a0.29 0.29 0 0 0 0.07 0.22z"/>
<path class="cls-11" d="m230 220a8.07 8.07 0 0 0-1.94 1.2v0.17c0.1-0.49 1.7-0.76 1.94-1.37z"/>
<path class="cls-11" d="m239.48 216.13c-0.59 0.3-1.16 0.64-1.73 1 0.41 0 0.94 0 0.24 0.52 2.4-0.9-0.71-0.16 1.49-1.52z"/>
<path class="cls-11" d="M244.86,213.22c-.86.62.17.27.18.41C245.52,213.12,245.64,213,244.86,213.22Z"/>
<path class="cls-11" d="m287 203.42-0.15 0.5c0.78 0.01 0-0.2 0.15-0.5z"/>
<path class="cls-11" d="m295.87 202.35c-0.24-0.18-0.48-0.36-0.73-0.52l-0.49 0.37c0.41 0.04 0.81 0.08 1.22 0.15z"/>
<path class="cls-11" d="m299.51 207.34h-0.35c0.44 0.09 0.88 0.16 1.3 0.29-0.31-0.14-0.63-0.22-0.95-0.29z"/>
<path class="cls-11" d="m327.89 266.86 0.67-0.12c0-0.56-0.67-0.8-0.67 0.12z"/>
<path class="cls-11" d="m316.62 296.35a1.82 1.82 0 0 0-1.15 1.4 13.71 13.71 0 0 0 1.15-1.4z"/>
<polygon class="cls-11" points="236.62 336.85 237.27 336.74 236.08 336.72"/>
<path class="cls-11" d="M35.9,340.7c0-.34-.22-.23-.48.64l.11.72Z"/>
<path class="cls-11" d="M33.34,346.29c-.19,1.06-.31,2.32.2,1.76,0-1.1.23-1.31.24-2.51.26-.87.62-1.46.69-1.28a11.07,11.07,0,0,0,.48-1.84,12.66,12.66,0,0,0-1.42,4C33.35,346.72,33.37,346.38,33.34,346.29Z"/>
<path class="cls-11" d="m27.89 433-0.21-0.54q0.08 0.2 0.21 0.54z"/>
<path class="cls-11" d="M69,468c-.42-.1-.59-.15-.62-.12C68.74,468,69.06,468.06,69,468Z"/>
<path class="cls-11" d="m78.18 470.44-0.55-0.09a1.83 1.83 0 0 0 0.55 0.09z"/>
<path class="cls-11" d="M27.89,433a11.66,11.66,0,0,0,.55,1.38c.07,0,0-.15-.14-.41Z"/>
<path class="cls-11" d="M30.33,358.18a5.67,5.67,0,0,0,.15-.79l-.18.73Z"/>
<path class="cls-11" d="M21.35,409.5l0-.45-.18-.36Z"/>
<path class="cls-11" d="M21.5,390.74c-.06.42.22.6.33.77a2,2,0,0,1-.11-.93S21.6,390.61,21.5,390.74Z"/>
<path class="cls-11" d="m28.05 361.86 0.11-0.52c-0.03 0.14-0.08 0.36-0.11 0.52z"/>
<path class="cls-11" d="m23.73 422.74a0.37 0.37 0 0 0-0.05 0.2s0.05-0.09 0.05-0.2z"/>
<path class="cls-11" d="m240.92 198.08s0 0 0 0 0.08-0.08 0 0z"/>
<path class="cls-11" d="M256.19,182.88l-.18.25a.38.38,0,0,0,.09.14Z"/>
<path class="cls-11" d="m75.53 481.38v-0.06c0.23-0.4 0.11-0.18 0 0.06z"/>
<path class="cls-11" d="m41.67 367.11c-0.89 1.57 0.75-2.81-0.48-0.41 0.19-0.2-0.48 2.42 0.48 0.41z"/>
<path class="cls-11" d="M30.16,358.63c-.07.24-.14.49-.22.73C30.05,359,30.12,358.81,30.16,358.63Z"/>
<path class="cls-11" d="m41.19 366.7-0.12 0.25a2.6 2.6 0 0 1 0.12-0.25z"/>
<path class="cls-11" d="m51.11 479.25a2 2 0 0 0 0.13 0.39s-0.01-0.12-0.13-0.39z"/>
<path class="cls-11" d="m70.59 490.06-0.47 0.55c0.2-0.21 0.34-0.39 0.47-0.55z"/>
<path class="cls-11" d="M43,466.45a7.24,7.24,0,0,0-.46-1,.41.41,0,0,0,0,.17A2.8,2.8,0,0,1,43,466.45Z"/>
<path class="cls-11" d="M37.1,451.75l0,.3.16.48Z"/>
<path class="cls-11" d="m202.51 227a3.24 3.24 0 0 1 0.77-0.14c-0.28-0.04 1.72-1.28-0.77 0.14z"/>
<path class="cls-11" d="M30.18,358.15a.89.89,0,0,1,0,.48c.05-.17.09-.34.14-.51S30.24,358,30.18,358.15Z"/>
<path class="cls-11" d="m40.68 466.85c-0.37-0.77-0.68-1.58-1-2.36 0.25 0.66 0.59 1.51 1 2.36z"/>
<path class="cls-11" d="m100.19 277.87 0.42-0.42a2.36 2.36 0 0 0-0.42 0.42z"/>
<path class="cls-11" d="M36.72,457.45a9.27,9.27,0,0,0-.31-1.42,2.36,2.36,0,0,0-.17-.26Z"/>
<path class="cls-11" d="m203.28 226.87"/>
<path class="cls-11" d="M216.94,217.39c-2,1.37-.72.93-1,1.4-2.34,1.67-1.26.51-2.18.88-1.44,1.07-2.41,2.11-3.53,2.83-.12,0-.35.13-.14-.1-1.45,1.24-4.79,2.94-6.49,4.41a1,1,0,0,1-.3.06c.41,0,.55.11.56.27-.94.54-1.63,1.19-2.11,1.18a2.43,2.43,0,0,0,.81-.65l-.93.65c-1.06.2,1.29-.87,1.16-1.09-1.87,1.19-4,2.71-5.49,3.46-.47-.13,3.39-2.05,1.28-1.21l2.34-1.17c-2,.52,1.4-.75-.48-.35-3,1.6-3.25,2.08-6.33,3.58-.6.53.35.13-.24.66-4.17,2.58-3.78,1.05-6.79,3a7.38,7.38,0,0,1-3.26,2.09l.61-.74c-3,1.45-1.47,1.33-4.74,2.58.49-.4,2.32-1.22,1.84-1-2.18.68-1.36.87-2.94,1.61l-.46-.16c-1.6.78-3.27,1.61-5,2.44s-3.48,1.71-5.28,2.49c.16-.18.74-.53-.15-.28-2.27,1-4.71,2.05-7.17,3s-4.92,1.77-7.19,2.53l-1.61.92c-.4.15-.79.16-.37-.06-1.79.56,0,.21-.83.63-1,.4-1.37.34-.77,0a112.71,112.71,0,0,1-12,4.8l.6-.33c-2.58.89-2.63,1.69-5.06,2.39l.43-.23c-5.52,2.12-11.3,5.18-15.45,7a14.79,14.79,0,0,1-2.79,1.78c-1.22.7-2.36,1.43-2.36,1.78a41.54,41.54,0,0,0-6.23,3.65c-1,.74-1.29,1.45-2.47,2.48l-.23-.21c-.49.52-1,1.07-1.44,1.61l-1.11.46-1,1c.45-.37,1-.72,1-.6a25.6,25.6,0,0,1-4.46,3.55c-1.25,1.32-2.49,2.66-3.7,4A7.52,7.52,0,0,1,94.54,283c-1.83,2.28-.61.14-2.27,2.25.3-.21,0,.27,0,.35a41.25,41.25,0,0,0-4.54,4.76l.12-.46c-2.73,3-5.51,6.47-8.36,10,1.1-1.2,1.15-.67.34.38l-.59.2c-.38.79,1-1,.06.52-1.1,1.29-1,.65-.48-.17l-1.2,1.67c-.15,0,.11-.38.09-.55-.38.77-2.47,2.56-2.94,3.74l-.15,0c-2.8,3.55-3.9,5.29-6.1,8.24.18.22-.71,1.35-1.16,2.38l-2.63,3.37c-.91,1.19-1.81,2.47-2.72,3.83-1.17,2-.18.68-.61,1.63-.33,0-2.06,2.74-1.3,1.22-2.06,3.33-2.7,4.21-5.05,8.58.37-.41.72-.9.63-.59-.42.79-1.14,1.69-1.18,1.52l.1-.21c-.65,1.23-1.38,2.53-2.16,3.84s-1.64,2.64-2.45,3.95a41.49,41.49,0,0,0-3.77,7.28l.08-.23-1.73,4.26c-.94,1.89.36-1.23-.45.12a58.24,58.24,0,0,1-2.37,5.82,49.33,49.33,0,0,0-2,5.26c-1,1.32-1.84,4-2.77,6.8s-1.65,5.8-2.5,7.78l.24-.19a6.74,6.74,0,0,1-.67,2.05c.16-.08.45-1.12.37-.43-2.2,9.07-4.33,18.85-4.9,28.49-.19,3.53.75,2,.36,6.44l-.34-1.26c.28,7.09.58,14.53,2.06,21.33a3.2,3.2,0,0,1-.36-1.06c0,1.49.9,5.36,1.14,5.34.22,1.05-.12.28-.06.95.2,1.47,1.14,3.53,1.09,4.35,0,.13-.17-.39-.25-.65.27.93,1.15,4.33,1.16,3.37.63,2.54,1.49,4.76,2.11,6.75.76,1.16,1.38,4.25,2,4.48-.49,0,1.52,4.33,2.38,5.75-.38-.44.51,1.34.05.84.89,1.67,1.76,3.17,1.82,2.77a15.79,15.79,0,0,0,1,2.37c.42.74.91,1.4,1.35,2.05a11,11,0,0,1,1.89,3.42c.79,1.15,1.7,2.2,2.51,3.28s1.6,2.16,2.49,3.13L54.5,487l1.26,1.43c.43.46.9.89,1.34,1.34-.21.07-1.25-.86-2.09-1.91s-1.72-2-1.83-1.77c.81.89,1.54,1.67,2.23,2.4s1.44,1.32,2.12,2,1.38,1.27,2.1,2a28,28,0,0,0,2.43,2.26c1.07.83-.76-.28-1.09-.55a7.86,7.86,0,0,0,3.55,1.91,5.26,5.26,0,0,0,4-1A12.1,12.1,0,0,0,71,492.54c.66-.87,1.28-1.75,1.85-2.65a3.83,3.83,0,0,1-.44.8c.49-.68,1.19-1.55,1-1.59l-.42.7c-1,.93,1.38-3.07,1.3-3.29-.14.75.46-.11,1-.87s1-1.45.77-.29c.26-.49.53-1.14.34-1.1.45-.68.65-.87.37-.07,1.4-2.66.68-1.84,1.95-4.23.09.05-.12.56-.16.86a39,39,0,0,1,1.94-4.67c0,.15.17-.06-.11.56.4-.9.73-1.75,1-2.59.14-.41.28-.83.42-1.23l.44-1.39c.17-.54.34-1.09.52-1.64,0-.13.12-.29.1-.39l-.46,0-.9-.09-1.73-.2c-.49-.07-1-.14-1.51-.23.65-.14.3-.21-.23-.31s-1.24-.28-1.32-.48l-2.24-.32.86.35A34.7,34.7,0,0,1,70,467l1.47.24c-1.21-.31-2.42-.57-3.6-1,.65.27,1.3.56,2,.77-2-.37.06.55-2.44-.39.52.13-1.91-.65-2.8-1.22h0a17.31,17.31,0,0,1-3.27-1.22c-.3-.26.45-.26.26-.42A10.44,10.44,0,0,1,59,462.7a27.5,27.5,0,0,0-2.82-1.22c.4.15.51,0,.41-.12l-.83-.19c-.76-.54-.85-.65-.64-.7-2.38-1.45.52.85-2.23-1,.24.12.15,0,.64.26-1.4-.9-2.71-1.82-4-2.65s-2.5-1.85-3.67-2.82c-.47-.84,2.15,1.56,1.54.68L46,454c-.44-.34-.86-.71-1.29-1.06-.86-.73-1.77-1.41-2.6-2.17l-2.43-2.31A30.59,30.59,0,0,1,37.52,446l.49.63c-.39-.05-.87-.7-1.43-1.51a20.73,20.73,0,0,0-1.88-2.65c.34.4.64.38.51.3-.42-.6-.85-1.19-1.32-1.79l-1.34-2c-.46-.69-1-1.38-1.51-2.2l-1.58-2.64.38.42c-.18-.39-.4-.84-.63-1.31l-.66-1.54a30.31,30.31,0,0,1-1.24-3c-.32-.47-.65-1.48-.62-.8a37.27,37.27,0,0,0-1.15-4c-.34-1.32-.74-2.6-1.14-3.87a25.71,25.71,0,0,1-.94-3.8c-.12-.63-.23-1.27-.32-1.9a10.16,10.16,0,0,1-.12-1.91c.05.61.31,1.41.23.94l-.59-4.28c-.19.36-.08.58-.16,1.5a14.76,14.76,0,0,1-.55-2.81c.38,1.93.33,0,.47-.89-.07.14-.15-.14-.22-.07.32-2.28-.48-.35-.33-3.46l.13.16a19.82,19.82,0,0,1-.19-3.48c.28-.51.1,1.24.32,1.32,0-1.75-.45-3.48-.11-5.06,0,.75,0,1.82.07,2.57a22.6,22.6,0,0,0,.41-3.19v.12l.37-2.94-.14.74c-.57-2.25.31-4.45.24-7.44.06,2.91.18.5.45.76.18-.73.42-1.85.47-1.52,0-1.41.58-2.26.56-4.26.12-.07.27-1.47.45-1.11.28-1.79-.25.39-.33.22.22-2.82,1.7-6.36,2.26-10.36.66-3.42.57-4.12,1.26-7.29.23-.5.25-.26.21.11s-.11.85-.11.85A33.8,33.8,0,0,0,29.53,359c0,.34.15,0,.4-.42.36-1.28-.1-1,.57-2.59a6.47,6.47,0,0,1,0,1.38c.38-1.52.68-3,1.09-4.62.29-.36-.05,1-.12,1.59a34.9,34.9,0,0,0,1.23-5.16l-.46,1.08c.2-.63.33-.25.22.23-.3,1.55-.78,2.12-.91,2.17l.3-1.12c-.9,1-1.35,4.45-2,6.66l-.12-1.05-.36,2.39c-.25.46-.57.72-.3-.4-.68,1.55-.28,1.46-.91,2.77-.08.15-.08.07-.05-.07-.13.53-.23,1.06-.33,1.6,0-.33-.36.18,0-.77-1,2.77-1,4.64-1.55,5.63l0-.25c-.84,4,.2.46-.18,3.51l-1.23,1.82.2.46c-.09.4-.29,1.21-.38,1-.12,1.57.19-.24.19.69a29.51,29.51,0,0,0-.84,3.5,5.61,5.61,0,0,1-.68,2.34c.1.76.5-1.87.29.28-.6.52-.36,2.47-.85,4.26-.22-.6.23-2.31-.31-.52.31,1.17-.55,3.56-.67,5.13.33.1-.12,3.39-.21,6a18,18,0,0,0-.23,2.7c0,.78-.09,1.64-.13,2.46s0,1.6,0,2.21l-.07-.07c.41.46.36,3,.62,4.8-.21-.06-.38-.37-.51-1.36a16.63,16.63,0,0,0,.15,1.72,8.85,8.85,0,0,1,.44,2l-.32-.4a30.74,30.74,0,0,0,.58,3.5c.27,1.22.54,2.51.72,4,.28.11.28-2.44,1,.57-.11.15-.32.31-.52-.48,0,.13.1.36.17.62a6.17,6.17,0,0,1,.21.82c-.17-.38-.37-.76-.51-1.16.18,1.34.35.64.59,1.69-.2,0,.07.8-.12.69a9.29,9.29,0,0,0-.35-1.31,17.86,17.86,0,0,1,.53,3.14c.08-.13.26-.07.51.78.29,1.11.34,1.31.29,1.4s-.15.08,0,.73c.32.49.68,1.92,1,1.85a2.42,2.42,0,0,1,.16,1.08c.13.27.31.73.52,1.25s.5,1.06.74,1.55c.47,1,.83,1.63.7.95l-.11-.28.09.17h0c.88,1.74,1.9,3.48,2.79,5.29.48.89,1,1.74,1.53,2.6a19,19,0,0,0,1.67,2.43l-.08,0c.74.89,1.5,1.93,2.27,2.84s1.57,1.72,2.18,2.27c.43.53.94,1.32.65,1.19a30.39,30.39,0,0,1,3.2,3.19c-1.39-1.12.32.55-1.38-1.2a21.69,21.69,0,0,0,1.78,1.88,17.82,17.82,0,0,0,2.12,1.69c-.4-.18-.13.17.35.65a17.87,17.87,0,0,0,1.69,1.32l-1.16-1.13c1,.72,1.82,1.4,2.67,2.09l-.67-.1a16.09,16.09,0,0,0,2.71,2,29,29,0,0,0,2.69,1.56,33,33,0,0,1,4.86,2.84c1.22.36-2.22-1.29-1.09-1,1.91,1,3.7,2.5,4.35,2.72a10.64,10.64,0,0,0,2.73,1,18.27,18.27,0,0,1,2.88.84c-.33-.24-.58-.66,1.64,0a6.71,6.71,0,0,1,1.79.84c.18.18-.07.25-.74.12-.51-.11-.73-.26-.7-.28-.67-.19-1.56-.44-.79,0l.31,0c1,.51,3.88,1.2,3.15,1.23,1.62.32.72,0-.43-.39,2.63.95,4.23,1,7,1.68-.44-.14-.83-.37-.39-.27a9.59,9.59,0,0,0,2.84.3c.18-.06.27-.15,1.27-.06,0,0,.13,0,.09.08a.8.8,0,0,0-.09.14,1.16,1.16,0,0,1-.13.15.88.88,0,0,1-.17.1c-.09.06-.13.09-.3.77-.36.77-.47.83-.46.61a3,3,0,0,1,.07-.49,2,2,0,0,0,0-.25v-.09a3,3,0,0,1-.19.67c-.1.29-.2.57-.32.84-.22.54-.46,1-.7,1.52-.48.94-1,1.72-1.28,2.37l.47-1.25c-.28.75-.56,1.34-.85,1.94l.55-.59c-.38.69-.67,1.29-.76,1.23-.22.8.64-.38.1,1.16-.57.89-1.4,2.89-1.86,3,1.7-2.84-.44.17.85-2.31a12.84,12.84,0,0,1-1,1.74c-.08.08,0-.13.09-.33-1.81,2.59-.39,1.45-2.13,4.23.08-.45-.68.45-1,.91.73-1.09.59-.36,0,.72-1.3,1.66-1.23,1.93-1.89,2.82l.79-1a11.66,11.66,0,0,1-1.6,2.49c-.18,0,.74-1.12.37-.74A7.78,7.78,0,0,1,66,494.21c-.82,0-.14-.28-.78-.36a2.51,2.51,0,0,1-1.83-.8c-.45-.42-.91-.87-1.91-1.79.37.72.51.78-1-.41a16.51,16.51,0,0,0,3.23,2.68,10,10,0,0,1-2.25-1.42A9,9,0,0,0,64.21,494c-.57-.14-.82-.29-.88-.28s.06.13.28.36a28.74,28.74,0,0,1-4.14-3.79l.46-.37c-1-1.24-2.08-2.13-3.12-3.23s-2.17-2.3-3.43-3.92l.76,1.08A5.45,5.45,0,0,1,53,482.7c-.46-.57-.9-1.28-1.33-1.79.23,0-.2-.73-.43-1.27-.08.15-1.73-2.44-2.28-2.52l-.75-1.7a16.2,16.2,0,0,0-2.05-2.89c-.3-.37-.62-.71-.93-1.17a18,18,0,0,1-1-1.72c.64.75.09-.6,1.21,1.22-.49-.94-.9-1.81-1-1.76-.18-.6-1.61-2.49-1.89-3.44a4.39,4.39,0,0,1-1-1.53c0-.13.09,0,.09,0s-.88-1.67-.66-.62c-.86-3.21-3.53-8.52-3.87-11.43-.7-2.22-1.67-4.86-2.1-6.94.09.12.1,0,.17.38-.49-2.88-1-1.62-1.52-4.91,0-.87.12-.44.24.07s.27,1.09.21.56c.47-.56-.8-3.93-.83-6.19l.13.53c-.13-1.7-.8-4.09-1.1-6.87,0,0,.07.13.1,0A14.12,14.12,0,0,1,32,427c-.1-.64-.19-1.35-.28-2.09-.17-1.47-.32-3-.44-4.39.3.83.21,1.22.43.7-.09-1.2-.44.37-.54-2,.14-.79.25-2.53.52-2.75l0,2.26c.35-1.16,0-2.93,0-4.12l.16.15c0-3.46-.31-3.53-.13-7.26l-.13.38c-.27-2.08.36-1.69.26-3.75l.45-.57c0-.68,0-1.86.09-3.18s.24-2.76.39-4c.09,1.41-.26,4.21-.2,6,.08-1.33.56-4.49.48-5.2a11,11,0,0,1-.2,1.73A24.26,24.26,0,0,1,33,396a26.19,26.19,0,0,1,.52-3.58c.32.3.72-1.39,1.16-3.38a21.44,21.44,0,0,1,1.55-5.1c.23-1.15.46-2.3.79-3.44s.7-2.26,1.08-3.41c.71-2.32,1.66-4.67,2.53-7.26-1.2,1.63.51-1.52-.18-1.41a9.81,9.81,0,0,1,.69-1.75l1.75-3.47c.5-.79-.31,1.18-.14,1.12,1.07-2.58.64-1,1.51-2.64-.35.26.1-1,.81-2.43L44,361.22a13,13,0,0,1,1.54-3.3,16.6,16.6,0,0,0,1.61-3.3l-.37,1.21c.77-1.87,3.2-6.71,3.73-8.67.23-.29.6-.63.23.18.57-1.06,1.13-2.2,1.71-3.36l1.76-3.46a45.91,45.91,0,0,1,3.45-5.92l-.07.39a12.21,12.21,0,0,1,1.28-2.38c0,.08-.06.39.16,0a24.86,24.86,0,0,1,1.79-3.12l-.41,1c2.67-3.88,3.63-6.27,5.76-9.62.36.26,2.63-2.68,3.76-4.14v.09c1.63-2.21,3-4.11,4.24-6s2.56-3.72,4.06-5.79A64.67,64.67,0,0,0,83,299.63c1.88-2.23,3.93-4.63,5.7-6.44-.57.53-.17-.32.39-1,.85-.84,2-2.65,2.15-2.24l-.29.31c.9-.4,2.47-2.26,3.81-3.61l-.16-.59a84.16,84.16,0,0,0,6.44-5.92c2.15-2.05,4.17-3.85,5.45-4.41.84-.87,2-1.74,2.9-2.57l.12.26c2.73-1.88,4.1-2.79,7.56-5l-.62.6c2-1.16,2.1-2.19,4-3.23l.76.06c3.57-1.91,7.44-3.3,11-5.23,0,.08-.09.24-.69.51,1.75-.76,6.93-2.57,6.07-2.84.19.33,3.92-1.51,5.92-2.44l-.22.38a19.58,19.58,0,0,1,4-2.11c.59-.18.58,0-.21.24,2-.58,1.4-.81,3.78-1.54l-.8.49A9.75,9.75,0,0,0,152.8,252a14.37,14.37,0,0,1,4.14-1.25,7.11,7.11,0,0,1,2.4-1.25c.19,0-.21.25-.41.36,3.37-1.1,4.76-2.25,7.11-2.92a.6.6,0,0,0,.44,0c-2.6,1.07-4.69,1.92-4.51,1.82.1.24,2.22-.59.68.43a52.06,52.06,0,0,1,6.43-3.19l.3,0-.2.12a8.34,8.34,0,0,0,1.27-.59c.66-.25,1.09-.4,1.71-.67a20.3,20.3,0,0,0,3.48-1.38c-.2-.22,1.17-.77-.19-.43.17-.05-.19.12-.87.43-.15.08-.34.16-.43.22l.06-.05-2.57,1.14a10.15,10.15,0,0,1,2.78-1.33c.46-.4,1-.82,1.26-1,1.58-.26,4.36-1.35,4.85-1.3,3.09-1.55,7.3-3.63,9-5.06a3.06,3.06,0,0,1,1.44-.46c-.47.31-1.09.59-1.33.8,1.71-1,5.14-2.75,5.38-3.28,2.27-1-1.07.95,1.91-.7l-.35.32a45.62,45.62,0,0,0,7.67-4.49,58.6,58.6,0,0,1,8-5,2.91,2.91,0,0,1-.8.37c7.35-4.25,14.22-10.07,21-15a15.17,15.17,0,0,0,2.92-2.87l.59-.11,1.59-1.94a27.09,27.09,0,0,1,3.76-3.18,26,26,0,0,0,4-4l-.54.27c.56-.57,1.45-1.47,2.14-2.24s1.23-1.36,1.22-1.18a2.5,2.5,0,0,1,.69-.93l.15.07,2.41-3.11c2-2.27.19.79,3-2.67,1-1.33,2.58-4,2.11-3.54s-1.15,1.27-1.3,1.21l.87-1.22c-.19-.5.14-1.68-2.41,1l-1.37,2.17-.69.5,1.33-1.69a7.62,7.62,0,0,0-1.7,2.3,2.74,2.74,0,0,0-.86.67L249,190.24c-.34.1.48-1.08-.71.11-.63,1,1.05-.57-.14,1-1,.78-.86.39-1.68,1.59-.23.07-.08-.21.26-.67-.38.52-.91,1.17-1.42,1.75a6.82,6.82,0,0,0-1.12,1.41c-1.08.72-3,3.12-3.2,2.72-.11.18-.44.64-.85,1.16s-1,1.06-1.37,1.47c1.21-1.84-3.26,3-3.22,2.15a7.82,7.82,0,0,1-1,1.27c-.47.46-1,1-1.63,1.48-1.2,1-2.53,2.16-3.52,3.17a2.34,2.34,0,0,1,.49-.53,20.08,20.08,0,0,1-2.55,1.71c.08.43-1.82,2-2.73,3-1.76.89.66-1.08,0-1,.26.19-2.48,2.32-1.8,2.12-1.35.67-1.11.65-1.93.83.08.55-1.08.87-1.91,1.83-1.89,1.05-.71-.06-2.55,1.43-.51.25-.35.05-.07-.22S216.94,217.39,216.94,217.39Zm-49.08,27.2h0l1.07-.46Zm-4.38,1.81,1.9-.77c.19,0,.07.18-.38.36C165.22,245.83,164.16,246.21,163.48,246.4Zm10-2.12a2.47,2.47,0,0,1-1.05.38l1.19-.56.07-.07A.75.75,0,0,1,173.49,244.28Z"/>
<path class="cls-11" d="M174.58,243.4l.27-.14-.43.12-.21.19Z"/>
<path class="cls-11" d="M27.65,432.33l0,.1-.05-.21A.65.65,0,0,1,27.65,432.33Z"/>
<polygon class="cls-11" points="104.16 274.3 104.21 274.35 104.5 274.04"/>
<path class="cls-11" d="m22.42 406.89a1.63 1.63 0 0 0 0.06-0.35 1.39 1.39 0 0 0-0.06 0.35z"/>
<path class="cls-11" d="m22.5 395.68 0.23-1.58c-0.11 0.68-0.18 1.18-0.23 1.58z"/>
<path class="cls-11" d="M23.51,387.11a.4.4,0,0,0-.1-.19v0Z"/>
<path class="cls-11" d="M72.45,490.69c-.06.1-.13.2-.19.28C71.83,491.65,72.14,491.2,72.45,490.69Z"/>
<path class="cls-11" d="m64.65 465.39 1.28 0.31c-0.67-0.25-1.2-0.44-1.28-0.31z"/>
<path class="cls-11" d="M40.81,467.1h0c0-.09-.08-.16-.13-.25Z"/>
<path class="cls-11" d="m67.72 466.33a12.54 12.54 0 0 0-1.79-0.63c0.56 0.22 1.21 0.47 1.79 0.63z"/>
<path class="cls-11" d="M32.7,350.83l.14-.39s0,0,0-.06Z"/>
<path class="cls-11" d="m32.81 350.38 0.12-0.45a1.57 1.57 0 0 0-0.12 0.45z"/>
<path class="cls-11" d="M33.17,349l-.24.95A4.13,4.13,0,0,0,33.17,349Z"/>
<path class="cls-11" d="M29.16,361.74l.06.15A.16.16,0,0,0,29.16,361.74Z"/>
<path class="cls-11" d="m28.24 365.1c0.25-0.8 0.75-2 1-3.08l-0.05-0.13c0.01 0.56-0.9 2.4-0.95 3.21z"/>
<path class="cls-11" d="M23.61,379l.69-2.85c-.21.48-.49,1.11-.24-.21C23,379.46,24.45,375.21,23.61,379Z"/>
<path class="cls-11" d="m22 387.93c0.15-1.58-0.16 0-0.21-0.1-0.02 1.01-0.03 1.25 0.21 0.1z"/>
<path class="cls-11" d="m39 449.43-0.3 0.06c0.93 0.85 0.12-0.06 0.3-0.06z"/>
<polygon class="cls-11" points="49.29 456.72 48.47 455.87 47.89 455.72"/>
<polygon class="cls-11" points="54.55 462.26 54.06 462.02 55.88 462.98"/>
<path class="cls-11" d="m38.21 454.35-0.17 0.45c0.33 0.74 0.72 0.78 0.17-0.45z"/>
<path class="cls-11" d="M32,407.9a8.76,8.76,0,0,0,.33-2.64A21.91,21.91,0,0,0,32,407.9Z"/>
<polygon class="cls-11" points="96.51 284.63 95.91 285.38 97.11 284.05"/>
</g>
</g>
</g>
</svg>
